<svg version="1.1" viewBox="0.0 0.0 600.0 371.0" fill="none" stroke="none" stroke-linecap="square" stroke-miterlimit="10" width="600" height="371" xmlns:xlink="http://www.w3.org/1999/xlink" xmlns="http://www.w3.org/2000/svg"><path fill="#ffffff" d="M0 0L600.0 0L600.0 371.0L0 371.0L0 0Z" fill-rule="nonzero"/><path stroke="#cccccc" stroke-width="1.0" stroke-linecap="butt" d="M89.5 88.5L89.5 300.5" fill-rule="nonzero"/><path stroke="#cccccc" stroke-width="1.0" stroke-linecap="butt" d="M182.5 88.5L182.5 300.5" fill-rule="nonzero"/><path stroke="#cccccc" stroke-width="1.0" stroke-linecap="butt" d="M274.5 88.5L274.5 300.5" fill-rule="nonzero"/><path stroke="#cccccc" stroke-width="1.0" stroke-linecap="butt" d="M366.5 88.5L366.5 300.5" fill-rule="nonzero"/><path stroke="#cccccc" stroke-width="1.0" stroke-linecap="butt" d="M459.5 88.5L459.5 300.5" fill-rule="nonzero"/><path stroke="#cccccc" stroke-width="1.0" stroke-linecap="butt" d="M551.5 88.5L551.5 300.5" fill-rule="nonzero"/><path stroke="#333333" stroke-width="1.0" stroke-linecap="butt" d="M77.5 300.5L581.5 300.5" fill-rule="nonzero"/><path stroke="#cccccc" stroke-width="1.0" stroke-linecap="butt" d="M77.5 229.5L581.5 229.5" fill-rule="nonzero"/><path stroke="#cccccc" stroke-width="1.0" stroke-linecap="butt" d="M77.5 159.5L581.5 159.5" fill-rule="nonzero"/><path stroke="#cccccc" stroke-width="1.0" stroke-linecap="butt" d="M77.5 88.5L581.5 88.5" fill-rule="nonzero"/><clipPath id="id_0"><path d="M77.55 88.28333L581.45 88.28333L581.45 300.45L77.55 300.45L77.55 88.28333Z" clip-rule="nonzero"/></clipPath><path stroke="#4285f4" stroke-width="2.0" stroke-linecap="butt" stroke-opacity="0.4" clip-path="url(#id_0)" d="M0 179.8293L581.45 118.929634" fill-rule="nonzero"/><path fill="#4285f4" clip-path="url(#id_0)" d="M88.86077 165.9995C88.86077 168.48477 86.846054 170.4995 84.36077 170.4995C81.875496 170.4995 79.86077 168.48477 79.86077 165.9995C79.86077 163.5142 81.875496 161.4995 84.36077 161.4995C86.846054 161.4995 88.86077 163.5142 88.86077 165.9995Z" fill-rule="nonzero"/><path fill="#4285f4" clip-path="url(#id_0)" d="M174.9402 172.69145C174.9402 175.17673 172.92548 177.19145 170.4402 177.19145C167.95491 177.19145 165.9402 175.17673 165.9402 172.69145C165.9402 170.20618 167.95491 168.19145 170.4402 168.19145C172.92548 168.19145 174.9402 170.20618 174.9402 172.69145Z" fill-rule="nonzero"/><path fill="#4285f4" clip-path="url(#id_0)" d="M331.94 137.92088C331.94 140.40617 329.9253 142.42088 327.44 142.42088C324.9547 142.42088 322.94 140.40617 322.94 137.92088C322.94 135.43561 324.9547 133.42088 327.44 133.42088C329.9253 133.42088 331.94 135.43561 331.94 137.92088Z" fill-rule="nonzero"/><path fill="#4285f4" clip-path="url(#id_0)" d="M579.1392 121.53654C579.1392 124.02182 577.1245 126.03654 574.6392 126.03654C572.15393 126.03654 570.1392 124.02182 570.1392 121.53654C570.1392 119.051254 572.15393 117.03654 574.6392 117.03654C577.1245 117.03654 579.1392 119.051254 579.1392 121.53654Z" fill-rule="nonzero"/><path fill="#000000" d="M296.96875 349.45L295.92188 349.45L295.92188 342.73126Q295.53125 343.09064 294.90625 343.46564Q294.29688 343.825 293.8125 343.9969L293.8125 342.98126Q294.6875 342.5594 295.34375 341.98126Q296.01562 341.3875 296.29688 340.825L296.96875 340.825L296.96875 349.45ZM299.5 349.59064L301.98438 340.71564L302.82812 340.71564L300.34375 349.59064L299.5 349.59064ZM304.92188 349.45L302.64062 340.85626L303.8125 340.85626L305.125 346.4969Q305.32812 347.3719 305.48438 348.2469Q305.8125 346.8719 305.875 346.65314L307.5 340.85626L308.875 340.85626L310.10938 345.2Q310.5625 346.825 310.78125 348.2469Q310.9375 347.4344 311.20312 346.3719L312.54688 340.85626L313.6875 340.85626L311.34375 349.45L310.23438 349.45L308.4375 342.90314Q308.20312 342.09064 308.15625 341.90314Q308.03125 342.48126 307.90625 342.90314L306.09375 349.45L304.92188 349.45ZM318.35938 348.6844Q317.76562 349.1844 317.21875 349.3875Q316.6875 349.59064 316.0625 349.59064Q315.03125 349.59064 314.48438 349.09064Q313.9375 348.59064 313.9375 347.8094Q313.9375 347.35626 314.14062 346.98126Q314.34375 346.59064 314.6875 346.3719Q315.03125 346.1375 315.45312 346.02814Q315.75 345.9344 316.39062 345.85626Q317.65625 345.71564 318.26562 345.4969Q318.26562 345.27814 318.26562 345.23126Q318.26562 344.575 317.96875 344.3094Q317.5625 343.96564 316.76562 343.96564Q316.03125 343.96564 315.67188 344.23126Q315.3125 344.48126 315.14062 345.1375L314.10938 344.9969Q314.25 344.34064 314.57812 343.9344Q314.90625 343.52814 315.51562 343.3094Q316.125 343.09064 316.92188 343.09064Q317.71875 343.09064 318.21875 343.27814Q318.71875 343.46564 318.95312 343.7469Q319.1875 344.02814 319.28125 344.46564Q319.32812 344.73126 319.32812 345.4344L319.32812 346.84064Q319.32812 348.3094 319.39062 348.7Q319.46875 349.09064 319.67188 349.45L318.5625 349.45Q318.40625 349.1219 318.35938 348.6844ZM318.26562 346.325Q317.6875 346.5594 316.54688 346.73126Q315.89062 346.825 315.625 346.95Q315.35938 347.0594 315.20312 347.27814Q315.0625 347.4969 315.0625 347.77814Q315.0625 348.2 315.375 348.48126Q315.70312 348.7625 316.3125 348.7625Q316.92188 348.7625 317.39062 348.4969Q317.875 348.23126 318.09375 347.7625Q318.26562 347.40314 318.26562 346.71564L318.26562 346.325ZM323.01562 349.45L320.65625 343.23126L321.76562 343.23126L323.10938 346.95Q323.3125 347.5594 323.5 348.2Q323.64062 347.71564 323.89062 347.02814L325.28125 343.23126L326.35938 343.23126L324.0 349.45L323.01562 349.45ZM330.54688 347.45L331.64062 347.575Q331.39062 348.52814 330.6875 349.0594Q329.98438 349.59064 328.90625 349.59064Q327.54688 349.59064 326.73438 348.7469Q325.9375 347.90314 325.9375 346.3875Q325.9375 344.825 326.75 343.96564Q327.5625 343.09064 328.84375 343.09064Q330.09375 343.09064 330.875 343.9344Q331.67188 344.77814 331.67188 346.325Q331.67188 346.41876 331.67188 346.60626L327.03125 346.60626Q327.09375 347.6375 327.60938 348.1844Q328.125 348.71564 328.90625 348.71564Q329.48438 348.71564 329.89062 348.41876Q330.3125 348.10626 330.54688 347.45ZM327.09375 345.7469L330.5625 345.7469Q330.5 344.95 330.17188 344.5594Q329.65625 343.95 328.85938 343.95Q328.125 343.95 327.625 344.4344Q327.14062 344.91876 327.09375 345.7469ZM333.26562 349.45L333.26562 340.85626L334.32812 340.85626L334.32812 349.45L333.26562 349.45ZM340.54688 347.45L341.64062 347.575Q341.39062 348.52814 340.6875 349.0594Q339.98438 349.59064 338.90625 349.59064Q337.54688 349.59064 336.73438 348.7469Q335.9375 347.90314 335.9375 346.3875Q335.9375 344.825 336.75 343.96564Q337.5625 343.09064 338.84375 343.09064Q340.09375 343.09064 340.875 343.9344Q341.67188 344.77814 341.67188 346.325Q341.67188 346.41876 341.67188 346.60626L337.03125 346.60626Q337.09375 347.6375 337.60938 348.1844Q338.125 348.71564 338.90625 348.71564Q339.48438 348.71564 339.89062 348.41876Q340.3125 348.10626 340.54688 347.45ZM337.09375 345.7469L340.5625 345.7469Q340.5 344.95 340.17188 344.5594Q339.65625 343.95 338.85938 343.95Q338.125 343.95 337.625 344.4344Q337.14062 344.91876 337.09375 345.7469ZM343.29688 349.45L343.29688 343.23126L344.23438 343.23126L344.23438 344.10626Q344.92188 343.09064 346.21875 343.09064Q346.78125 343.09064 347.25 343.29376Q347.73438 343.4969 347.96875 343.825Q348.20312 344.15314 348.29688 344.59064Q348.34375 344.8875 348.34375 345.6219L348.34375 349.45L347.29688 349.45L347.29688 345.66876Q347.29688 345.0125 347.17188 344.7Q347.04688 344.3875 346.73438 344.2Q346.42188 343.9969 346.0 343.9969Q345.32812 343.9969 344.82812 344.4344Q344.34375 344.85626 344.34375 346.04376L344.34375 349.45L343.29688 349.45ZM350.09375 349.96564L351.125 350.1219Q351.1875 350.59064 351.48438 350.8094Q351.875 351.10626 352.54688 351.10626Q353.28125 351.10626 353.67188 350.8094Q354.07812 350.5125 354.21875 349.9969Q354.3125 349.66876 354.29688 348.6375Q353.60938 349.45 352.57812 349.45Q351.29688 349.45 350.59375 348.52814Q349.89062 347.59064 349.89062 346.3094Q349.89062 345.41876 350.20312 344.66876Q350.53125 343.90314 351.14062 343.4969Q351.75 343.09064 352.57812 343.09064Q353.6875 343.09064 354.40625 343.98126L354.40625 343.23126L355.375 343.23126L355.375 348.60626Q355.375 350.0594 355.07812 350.66876Q354.78125 351.27814 354.14062 351.6219Q353.5 351.98126 352.5625 351.98126Q351.45312 351.98126 350.76562 351.48126Q350.07812 350.98126 350.09375 349.96564ZM350.96875 346.23126Q350.96875 347.45 351.45312 348.0125Q351.9375 348.575 352.67188 348.575Q353.40625 348.575 353.89062 348.0125Q354.39062 347.45 354.39062 346.2625Q354.39062 345.1219 353.875 344.54376Q353.375 343.96564 352.65625 343.96564Q351.95312 343.96564 351.45312 344.54376Q350.96875 345.10626 350.96875 346.23126ZM359.59375 348.5125L359.75 349.4344Q359.29688 349.52814 358.95312 349.52814Q358.375 349.52814 358.0625 349.35626Q357.75 349.16876 357.60938 348.8719Q357.48438 348.575 357.48438 347.6219L357.48438 344.04376L356.71875 344.04376L356.71875 343.23126L357.48438 343.23126L357.48438 341.6844L358.53125 341.0594L358.53125 343.23126L359.59375 343.23126L359.59375 344.04376L358.53125 344.04376L358.53125 347.6844Q358.53125 348.1375 358.57812 348.2625Q358.64062 348.3875 358.76562 348.46564Q358.89062 348.54376 359.125 348.54376Q359.3125 348.54376 359.59375 348.5125ZM360.29688 349.45L360.29688 340.85626L361.34375 340.85626L361.34375 343.9344Q362.07812 343.09064 363.20312 343.09064Q363.90625 343.09064 364.40625 343.3719Q364.92188 343.6375 365.14062 344.1219Q365.35938 344.59064 365.35938 345.5125L365.35938 349.45L364.3125 349.45L364.3125 345.5125Q364.3125 344.71564 363.96875 344.35626Q363.625 343.9969 363.0 343.9969Q362.53125 343.9969 362.10938 344.2469Q361.70312 344.48126 361.51562 344.90314Q361.34375 345.3094 361.34375 346.04376L361.34375 349.45L360.29688 349.45Z" fill-rule="nonzero"/><path fill="#000000" d="M29.550013 236.49167L20.956263 236.49167L20.956263 235.35104L25.221888 235.35104L20.956263 231.08542L20.956263 229.53854L24.440638 233.14792L29.550013 229.3823L29.550013 230.8823L25.206263 233.9448L26.565638 235.35104L29.550013 235.35104L29.550013 236.49167ZM29.550013 228.5698L23.331263 228.5698L23.331263 227.6323L24.206263 227.6323Q23.190638 226.9448 23.190638 225.64792Q23.190638 225.08542 23.393763 224.61667Q23.596888 224.1323 23.925013 223.89792Q24.253138 223.66354 24.690638 223.5698Q24.987513 223.52292 25.721888 223.52292L29.550013 223.52292L29.550013 224.5698L25.768763 224.5698Q25.112513 224.5698 24.800013 224.6948Q24.487513 224.8198 24.300013 225.1323Q24.096888 225.4448 24.096888 225.86667Q24.096888 226.53854 24.534388 227.03854Q24.956263 227.52292 26.143763 227.52292L29.550013 227.52292L29.550013 228.5698ZM27.550013 217.3198L27.675013 216.22604Q28.628138 216.47604 29.159388 217.17917Q29.690638 217.8823 29.690638 218.96042Q29.690638 220.3198 28.846888 221.1323Q28.003138 221.92917 26.487513 221.92917Q24.925013 221.92917 24.065638 221.11667Q23.190638 220.30417 23.190638 219.02292Q23.190638 217.77292 24.034388 216.99167Q24.878138 216.1948 26.425013 216.1948Q26.518763 216.1948 26.706263 216.1948L26.706263 220.83542Q27.737513 220.77292 28.284388 220.2573Q28.815638 219.74167 28.815638 218.96042Q28.815638 218.3823 28.518763 217.97604Q28.206263 217.55417 27.550013 217.3198ZM25.846888 220.77292L25.846888 217.30417Q25.050013 217.36667 24.659388 217.6948Q24.050013 218.21042 24.050013 219.0073Q24.050013 219.74167 24.534388 220.24167Q25.018763 220.72604 25.846888 220.77292ZM27.550013 210.3198L27.675013 209.22604Q28.628138 209.47604 29.159388 210.17917Q29.690638 210.8823 29.690638 211.96042Q29.690638 213.3198 28.846888 214.1323Q28.003138 214.92917 26.487513 214.92917Q24.925013 214.92917 24.065638 214.11667Q23.190638 213.30417 23.190638 212.02292Q23.190638 210.77292 24.034388 209.99167Q24.878138 209.1948 26.425013 209.1948Q26.518763 209.1948 26.706263 209.1948L26.706263 213.83542Q27.737513 213.77292 28.284388 213.2573Q28.815638 212.74167 28.815638 211.96042Q28.815638 211.3823 28.518763 210.97604Q28.206263 210.55417 27.550013 210.3198ZM25.846888 213.77292L25.846888 210.30417Q25.050013 210.36667 24.659388 210.6948Q24.050013 211.21042 24.050013 212.0073Q24.050013 212.74167 24.534388 213.24167Q25.018763 213.72604 25.846888 213.77292ZM29.550013 201.99167L20.956263 205.3198L20.956263 204.08542L27.206263 201.85104Q27.956263 201.58542 28.612513 201.39792Q27.909388 201.1948 27.206263 200.92917L20.956263 198.61667L20.956263 197.46042L29.550013 200.8198L29.550013 201.99167ZM26.440638 197.96042Q24.706263 197.96042 23.878138 197.0073Q23.190638 196.21042 23.190638 195.05417Q23.190638 193.77292 24.034388 192.96042Q24.862513 192.1323 26.346888 192.1323Q27.550013 192.1323 28.237513 192.49167Q28.925013 192.85104 29.315638 193.55417Q29.690638 194.24167 29.690638 195.05417Q29.690638 196.35104 28.862513 197.16354Q28.018763 197.96042 26.440638 197.96042ZM26.440638 196.8823Q27.628138 196.8823 28.221888 196.36667Q28.815638 195.83542 28.815638 195.05417Q28.815638 194.2573 28.221888 193.74167Q27.628138 193.22604 26.409388 193.22604Q25.253138 193.22604 24.659388 193.7573Q24.065638 194.27292 24.065638 195.05417Q24.065638 195.83542 24.659388 196.36667Q25.237513 196.8823 26.440638 196.8823ZM29.550013 190.60104L20.956263 190.60104L20.956263 189.53854L29.550013 189.53854L29.550013 190.60104ZM28.612513 185.27292L29.534388 185.11667Q29.628138 185.5698 29.628138 185.91354Q29.628138 186.49167 29.456263 186.80417Q29.268763 187.11667 28.971888 187.2573Q28.675013 187.3823 27.721888 187.3823L24.143763 187.3823L24.143763 188.14792L23.331263 188.14792L23.331263 187.3823L21.784388 187.3823L21.159388 186.33542L23.331263 186.33542L23.331263 185.27292L24.143763 185.27292L24.143763 186.33542L27.784388 186.33542Q28.237513 186.33542 28.362513 186.28854Q28.487513 186.22604 28.565638 186.10104Q28.643763 185.97604 28.643763 185.74167Q28.643763 185.55417 28.612513 185.27292ZM28.784388 180.5073Q29.284388 181.10104 29.487513 181.64792Q29.690638 182.17917 29.690638 182.80417Q29.690638 183.83542 29.190638 184.3823Q28.690638 184.92917 27.909388 184.92917Q27.456263 184.92917 27.081263 184.72604Q26.690638 184.52292 26.471888 184.17917Q26.237513 183.83542 26.128138 183.41354Q26.034388 183.11667 25.956263 182.47604Q25.815638 181.21042 25.596888 180.60104Q25.378138 180.60104 25.331263 180.60104Q24.675013 180.60104 24.409388 180.89792Q24.065638 181.30417 24.065638 182.10104Q24.065638 182.83542 24.331263 183.1948Q24.581263 183.55417 25.237513 183.72604L25.096888 184.7573Q24.440638 184.61667 24.034388 184.28854Q23.628138 183.96042 23.409388 183.35104Q23.190638 182.74167 23.190638 181.9448Q23.190638 181.14792 23.378138 180.64792Q23.565638 180.14792 23.846888 179.91354Q24.128138 179.67917 24.565638 179.58542Q24.831263 179.53854 25.534388 179.53854L26.940638 179.53854Q28.409388 179.53854 28.800013 179.47604Q29.190638 179.39792 29.550013 179.1948L29.550013 180.30417Q29.221888 180.46042 28.784388 180.5073ZM26.425013 180.60104Q26.659388 181.17917 26.831263 182.3198Q26.925013 182.97604 27.050013 183.24167Q27.159388 183.5073 27.378138 183.66354Q27.596888 183.80417 27.878138 183.80417Q28.300013 183.80417 28.581263 183.49167Q28.862513 183.16354 28.862513 182.55417Q28.862513 181.9448 28.596888 181.47604Q28.331263 180.99167 27.862513 180.77292Q27.503138 180.60104 26.815638 180.60104L26.425013 180.60104ZM30.065638 177.77292L30.221888 176.74167Q30.690638 176.67917 30.909388 176.3823Q31.206263 175.99167 31.206263 175.3198Q31.206263 174.58542 30.909388 174.1948Q30.612513 173.78854 30.096888 173.64792Q29.768763 173.55417 28.737513 173.5698Q29.550013 174.2573 29.550013 175.28854Q29.550013 176.5698 28.628138 177.27292Q27.690638 177.97604 26.409388 177.97604Q25.518763 177.97604 24.768763 177.66354Q24.003138 177.33542 23.596888 176.72604Q23.190638 176.11667 23.190638 175.28854Q23.190638 174.17917 24.081263 173.46042L23.331263 173.46042L23.331263 172.49167L28.706263 172.49167Q30.159388 172.49167 30.768763 172.78854Q31.378138 173.08542 31.721888 173.72604Q32.08126 174.36667 32.08126 175.30417Q32.08126 176.41354 31.581263 177.10104Q31.081263 177.78854 30.065638 177.77292ZM26.331263 176.89792Q27.550013 176.89792 28.112513 176.41354Q28.675013 175.92917 28.675013 175.1948Q28.675013 174.46042 28.112513 173.97604Q27.550013 173.47604 26.362513 173.47604Q25.221888 173.47604 24.643763 173.99167Q24.065638 174.49167 24.065638 175.21042Q24.065638 175.91354 24.643763 176.41354Q25.206263 176.89792 26.331263 176.89792ZM27.550013 166.3198L27.675013 165.22604Q28.628138 165.47604 29.159388 166.17917Q29.690638 166.8823 29.690638 167.96042Q29.690638 169.3198 28.846888 170.1323Q28.003138 170.92917 26.487513 170.92917Q24.925013 170.92917 24.065638 170.11667Q23.190638 169.30417 23.190638 168.02292Q23.190638 166.77292 24.034388 165.99167Q24.878138 165.1948 26.425013 165.1948Q26.518763 165.1948 26.706263 165.1948L26.706263 169.83542Q27.737513 169.77292 28.284388 169.2573Q28.815638 168.74167 28.815638 167.96042Q28.815638 167.3823 28.518763 166.97604Q28.206263 166.55417 27.550013 166.3198ZM25.846888 169.77292L25.846888 166.30417Q25.050013 166.36667 24.659388 166.6948Q24.050013 167.21042 24.050013 168.0073Q24.050013 168.74167 24.534388 169.24167Q25.018763 169.72604 25.846888 169.77292Z" fill-rule="nonzero"/><path fill="#000000" d="M65.05 300.21564Q65.05 298.6844 65.3625 297.7625Q65.675 296.825 66.28438 296.325Q66.90938 295.825 67.84688 295.825Q68.53438 295.825 69.05 296.10626Q69.58125 296.3875 69.925 296.91876Q70.26875 297.4344 70.45625 298.1844Q70.64375 298.9344 70.64375 300.21564Q70.64375 301.73126 70.33125 302.65314Q70.03438 303.575 69.40938 304.09064Q68.8 304.59064 67.84688 304.59064Q66.6125 304.59064 65.89375 303.7Q65.05 302.6375 65.05 300.21564ZM66.12813 300.21564Q66.12813 302.325 66.62813 303.02814Q67.12813 303.73126 67.84688 303.73126Q68.58125 303.73126 69.06563 303.02814Q69.56563 302.325 69.56563 300.21564Q69.56563 298.09064 69.06563 297.40314Q68.58125 296.7 67.83125 296.7Q67.1125 296.7 66.675 297.3094Q66.12813 298.09064 66.12813 300.21564Z" fill-rule="nonzero"/><path fill="#000000" d="M69.01875 233.72778L67.97188 233.72778L67.97188 227.00903Q67.58125 227.36841 66.95625 227.74341Q66.34688 228.10278 65.8625 228.27466L65.8625 227.25903Q66.7375 226.83716 67.39375 226.25903Q68.06563 225.66528 68.34688 225.10278L69.01875 225.10278L69.01875 233.72778Z" fill-rule="nonzero"/><path fill="#000000" d="M70.59688 161.98993L70.59688 163.00555L64.90938 163.00555Q64.90938 162.63055 65.03438 162.27118Q65.25313 161.69305 65.72188 161.13055Q66.20625 160.56805 67.1125 159.83368Q68.51875 158.67743 69.00313 158.00555Q69.50313 157.33368 69.50313 156.73993Q69.50313 156.11493 69.05 155.69305Q68.59688 155.25555 67.87813 155.25555Q67.1125 155.25555 66.65938 155.70868Q66.20625 156.1618 66.19063 156.9743L65.1125 156.86493Q65.22188 155.64618 65.94063 155.02118Q66.675 154.38055 67.90938 154.38055Q69.14375 154.38055 69.8625 155.06805Q70.58125 155.75555 70.58125 156.77118Q70.58125 157.2868 70.3625 157.7868Q70.15938 158.27118 69.65938 158.83368Q69.175 159.38055 68.05 160.33368Q67.09688 161.13055 66.81563 161.42743Q66.55 161.70868 66.37813 161.98993L70.59688 161.98993Z" fill-rule="nonzero"/><path fill="#000000" d="M65.05 90.01771L66.1125 89.87708Q66.28438 90.76771 66.72188 91.17396Q67.15938 91.56458 67.78438 91.56458Q68.53438 91.56458 69.05 91.04896Q69.56563 90.53333 69.56563 89.76771Q69.56563 89.04896 69.08125 88.58021Q68.6125 88.09583 67.87813 88.09583Q67.58125 88.09583 67.12813 88.22083L67.25313 87.28333Q67.3625 87.29896 67.425 87.29896Q68.09688 87.29896 68.62813 86.95521Q69.175 86.59583 69.175 85.86146Q69.175 85.28333 68.78438 84.90833Q68.39375 84.51771 67.76875 84.51771Q67.15938 84.51771 66.7375 84.90833Q66.33125 85.29896 66.22188 86.06458L65.15938 85.87708Q65.34688 84.83021 66.03438 84.25208Q66.72188 83.65833 67.7375 83.65833Q68.44063 83.65833 69.03438 83.97083Q69.62813 84.26771 69.94063 84.78333Q70.25313 85.29896 70.25313 85.89271Q70.25313 86.43958 69.95625 86.90833Q69.65938 87.36146 69.08125 87.62708Q69.83125 87.79896 70.25313 88.36146Q70.675 88.90833 70.675 89.75208Q70.675 90.87708 69.84688 91.65833Q69.03438 92.43958 67.78438 92.43958Q66.65938 92.43958 65.90938 91.76771Q65.15938 91.08021 65.05 90.01771Z" fill-rule="nonzero"/><path fill="#000000" d="M71.45746 313.21564Q71.45746 311.6844 71.76996 310.7625Q72.08246 309.825 72.69183 309.325Q73.31683 308.825 74.25433 308.825Q74.94183 308.825 75.45746 309.10626Q75.98871 309.3875 76.33246 309.91876Q76.67621 310.4344 76.86371 311.1844Q77.05121 311.9344 77.05121 313.21564Q77.05121 314.73126 76.73871 315.65314Q76.44183 316.575 75.81683 317.09064Q75.20746 317.59064 74.25433 317.59064Q73.01996 317.59064 72.30121 316.7Q71.45746 315.6375 71.45746 313.21564ZM72.53558 313.21564Q72.53558 315.325 73.03558 316.02814Q73.53558 316.73126 74.25433 316.73126Q74.98871 316.73126 75.47308 316.02814Q75.97308 315.325 75.97308 313.21564Q75.97308 311.09064 75.47308 310.40314Q74.98871 309.7 74.23871 309.7Q73.51996 309.7 73.08246 310.3094Q72.53558 311.09064 72.53558 313.21564ZM79.05121 317.45L79.05121 316.2469L80.25433 316.2469L80.25433 317.45L79.05121 317.45ZM81.45746 313.21564Q81.45746 311.6844 81.76996 310.7625Q82.08246 309.825 82.69183 309.325Q83.31683 308.825 84.25433 308.825Q84.94183 308.825 85.45746 309.10626Q85.98871 309.3875 86.33246 309.91876Q86.67621 310.4344 86.86371 311.1844Q87.05121 311.9344 87.05121 313.21564Q87.05121 314.73126 86.73871 315.65314Q86.44183 316.575 85.81683 317.09064Q85.20746 317.59064 84.25433 317.59064Q83.01996 317.59064 82.30121 316.7Q81.45746 315.6375 81.45746 313.21564ZM82.53558 313.21564Q82.53558 315.325 83.03558 316.02814Q83.53558 316.73126 84.25433 316.73126Q84.98871 316.73126 85.47308 316.02814Q85.97308 315.325 85.97308 313.21564Q85.97308 311.09064 85.47308 310.40314Q84.98871 309.7 84.23871 309.7Q83.51996 309.7 83.08246 310.3094Q82.53558 311.09064 82.53558 313.21564ZM88.45746 313.21564Q88.45746 311.6844 88.76996 310.7625Q89.08246 309.825 89.69183 309.325Q90.31683 308.825 91.25433 308.825Q91.94183 308.825 92.45746 309.10626Q92.98871 309.3875 93.33246 309.91876Q93.67621 310.4344 93.86371 311.1844Q94.05121 311.9344 94.05121 313.21564Q94.05121 314.73126 93.73871 315.65314Q93.44183 316.575 92.81683 317.09064Q92.20746 317.59064 91.25433 317.59064Q90.01996 317.59064 89.30121 316.7Q88.45746 315.6375 88.45746 313.21564ZM89.53558 313.21564Q89.53558 315.325 90.03558 316.02814Q90.53558 316.73126 91.25433 316.73126Q91.98871 316.73126 92.47308 316.02814Q92.97308 315.325 92.97308 313.21564Q92.97308 311.09064 92.47308 310.40314Q91.98871 309.7 91.23871 309.7Q90.51996 309.7 90.08246 310.3094Q89.53558 311.09064 89.53558 313.21564ZM99.42621 317.45L98.37933 317.45L98.37933 310.73126Q97.98871 311.09064 97.36371 311.46564Q96.75433 311.825 96.26996 311.9969L96.26996 310.98126Q97.14496 310.5594 97.80121 309.98126Q98.47308 309.3875 98.75433 308.825L99.42621 308.825L99.42621 317.45ZM107.92621 310.96564L106.87933 311.04376Q106.73871 310.41876 106.48871 310.1375Q106.05121 309.6844 105.42621 309.6844Q104.92621 309.6844 104.53558 309.96564Q104.05121 310.34064 103.75433 311.04376Q103.47308 311.73126 103.45746 313.0125Q103.83246 312.4344 104.37933 312.15314Q104.94183 311.8719 105.55121 311.8719Q106.59808 311.8719 107.33246 312.65314Q108.08246 313.4344 108.08246 314.65314Q108.08246 315.46564 107.72308 316.16876Q107.37933 316.85626 106.76996 317.23126Q106.16058 317.59064 105.39496 317.59064Q104.06683 317.59064 103.23871 316.6219Q102.41058 315.65314 102.41058 313.4344Q102.41058 310.9344 103.33246 309.8094Q104.12933 308.825 105.48871 308.825Q106.50433 308.825 107.14496 309.40314Q107.80121 309.96564 107.92621 310.96564ZM103.62933 314.66876Q103.62933 315.21564 103.84808 315.71564Q104.08246 316.2 104.48871 316.46564Q104.91058 316.73126 105.37933 316.73126Q106.03558 316.73126 106.51996 316.2Q107.00433 315.65314 107.00433 314.73126Q107.00433 313.84064 106.51996 313.325Q106.05121 312.8094 105.33246 312.8094Q104.61371 312.8094 104.11371 313.325Q103.62933 313.84064 103.62933 314.66876Z" fill-rule="nonzero"/><path fill="#000000" d="M163.73445 313.21564Q163.73445 311.6844 164.04695 310.7625Q164.35945 309.825 164.96883 309.325Q165.59383 308.825 166.53133 308.825Q167.21883 308.825 167.73445 309.10626Q168.2657 309.3875 168.60945 309.91876Q168.9532 310.4344 169.1407 311.1844Q169.3282 311.9344 169.3282 313.21564Q169.3282 314.73126 169.0157 315.65314Q168.71883 316.575 168.09383 317.09064Q167.48445 317.59064 166.53133 317.59064Q165.29695 317.59064 164.5782 316.7Q163.73445 315.6375 163.73445 313.21564ZM164.81258 313.21564Q164.81258 315.325 165.31258 316.02814Q165.81258 316.73126 166.53133 316.73126Q167.2657 316.73126 167.75008 316.02814Q168.25008 315.325 168.25008 313.21564Q168.25008 311.09064 167.75008 310.40314Q167.2657 309.7 166.5157 309.7Q165.79695 309.7 165.35945 310.3094Q164.81258 311.09064 164.81258 313.21564ZM171.3282 317.45L171.3282 316.2469L172.53133 316.2469L172.53133 317.45L171.3282 317.45ZM173.73445 313.21564Q173.73445 311.6844 174.04695 310.7625Q174.35945 309.825 174.96883 309.325Q175.59383 308.825 176.53133 308.825Q177.21883 308.825 177.73445 309.10626Q178.2657 309.3875 178.60945 309.91876Q178.9532 310.4344 179.1407 311.1844Q179.3282 311.9344 179.3282 313.21564Q179.3282 314.73126 179.0157 315.65314Q178.71883 316.575 178.09383 317.09064Q177.48445 317.59064 176.53133 317.59064Q175.29695 317.59064 174.5782 316.7Q173.73445 315.6375 173.73445 313.21564ZM174.81258 313.21564Q174.81258 315.325 175.31258 316.02814Q175.81258 316.73126 176.53133 316.73126Q177.2657 316.73126 177.75008 316.02814Q178.25008 315.325 178.25008 313.21564Q178.25008 311.09064 177.75008 310.40314Q177.2657 309.7 176.5157 309.7Q175.79695 309.7 175.35945 310.3094Q174.81258 311.09064 174.81258 313.21564ZM180.73445 313.21564Q180.73445 311.6844 181.04695 310.7625Q181.35945 309.825 181.96883 309.325Q182.59383 308.825 183.53133 308.825Q184.21883 308.825 184.73445 309.10626Q185.2657 309.3875 185.60945 309.91876Q185.9532 310.4344 186.1407 311.1844Q186.3282 311.9344 186.3282 313.21564Q186.3282 314.73126 186.0157 315.65314Q185.71883 316.575 185.09383 317.09064Q184.48445 317.59064 183.53133 317.59064Q182.29695 317.59064 181.5782 316.7Q180.73445 315.6375 180.73445 313.21564ZM181.81258 313.21564Q181.81258 315.325 182.31258 316.02814Q182.81258 316.73126 183.53133 316.73126Q184.2657 316.73126 184.75008 316.02814Q185.25008 315.325 185.25008 313.21564Q185.25008 311.09064 184.75008 310.40314Q184.2657 309.7 183.5157 309.7Q182.79695 309.7 182.35945 310.3094Q181.81258 311.09064 181.81258 313.21564ZM191.7032 317.45L190.65633 317.45L190.65633 310.73126Q190.2657 311.09064 189.6407 311.46564Q189.03133 311.825 188.54695 311.9969L188.54695 310.98126Q189.42195 310.5594 190.0782 309.98126Q190.75008 309.3875 191.03133 308.825L191.7032 308.825L191.7032 317.45ZM194.79695 309.98126L194.79695 308.96564L200.35945 308.96564L200.35945 309.79376Q199.54695 310.66876 198.73445 312.1219Q197.93758 313.5594 197.50008 315.09064Q197.17195 316.16876 197.09383 317.45L196.00008 317.45Q196.0157 316.4344 196.3907 314.9969Q196.78133 313.5594 197.48445 312.23126Q198.2032 310.90314 199.0157 309.98126L194.79695 309.98126Z" fill-rule="nonzero"/><path fill="#000000" d="M256.01147 313.21564Q256.01147 311.6844 256.32397 310.7625Q256.63647 309.825 257.24585 309.325Q257.87085 308.825 258.80835 308.825Q259.49585 308.825 260.01147 309.10626Q260.54272 309.3875 260.88647 309.91876Q261.23022 310.4344 261.41772 311.1844Q261.60522 311.9344 261.60522 313.21564Q261.60522 314.73126 261.29272 315.65314Q260.99585 316.575 260.37085 317.09064Q259.76147 317.59064 258.80835 317.59064Q257.57397 317.59064 256.85522 316.7Q256.01147 315.6375 256.01147 313.21564ZM257.0896 313.21564Q257.0896 315.325 257.5896 316.02814Q258.0896 316.73126 258.80835 316.73126Q259.54272 316.73126 260.0271 316.02814Q260.5271 315.325 260.5271 313.21564Q260.5271 311.09064 260.0271 310.40314Q259.54272 309.7 258.79272 309.7Q258.07397 309.7 257.63647 310.3094Q257.0896 311.09064 257.0896 313.21564ZM263.60522 317.45L263.60522 316.2469L264.80835 316.2469L264.80835 317.45L263.60522 317.45ZM266.01147 313.21564Q266.01147 311.6844 266.32397 310.7625Q266.63647 309.825 267.24585 309.325Q267.87085 308.825 268.80835 308.825Q269.49585 308.825 270.01147 309.10626Q270.54272 309.3875 270.88647 309.91876Q271.23022 310.4344 271.41772 311.1844Q271.60522 311.9344 271.60522 313.21564Q271.60522 314.73126 271.29272 315.65314Q270.99585 316.575 270.37085 317.09064Q269.76147 317.59064 268.80835 317.59064Q267.57397 317.59064 266.85522 316.7Q266.01147 315.6375 266.01147 313.21564ZM267.0896 313.21564Q267.0896 315.325 267.5896 316.02814Q268.0896 316.73126 268.80835 316.73126Q269.54272 316.73126 270.0271 316.02814Q270.5271 315.325 270.5271 313.21564Q270.5271 311.09064 270.0271 310.40314Q269.54272 309.7 268.79272 309.7Q268.07397 309.7 267.63647 310.3094Q267.0896 311.09064 267.0896 313.21564ZM273.01147 313.21564Q273.01147 311.6844 273.32397 310.7625Q273.63647 309.825 274.24585 309.325Q274.87085 308.825 275.80835 308.825Q276.49585 308.825 277.01147 309.10626Q277.54272 309.3875 277.88647 309.91876Q278.23022 310.4344 278.41772 311.1844Q278.60522 311.9344 278.60522 313.21564Q278.60522 314.73126 278.29272 315.65314Q277.99585 316.575 277.37085 317.09064Q276.76147 317.59064 275.80835 317.59064Q274.57397 317.59064 273.85522 316.7Q273.01147 315.6375 273.01147 313.21564ZM274.0896 313.21564Q274.0896 315.325 274.5896 316.02814Q275.0896 316.73126 275.80835 316.73126Q276.54272 316.73126 277.0271 316.02814Q277.5271 315.325 277.5271 313.21564Q277.5271 311.09064 277.0271 310.40314Q276.54272 309.7 275.79272 309.7Q275.07397 309.7 274.63647 310.3094Q274.0896 311.09064 274.0896 313.21564ZM283.98022 317.45L282.93335 317.45L282.93335 310.73126Q282.54272 311.09064 281.91772 311.46564Q281.30835 311.825 280.82397 311.9969L280.82397 310.98126Q281.69897 310.5594 282.35522 309.98126Q283.0271 309.3875 283.30835 308.825L283.98022 308.825L283.98022 317.45ZM288.63647 312.79376Q287.98022 312.54376 287.6521 312.10626Q287.3396 311.65314 287.3396 311.04376Q287.3396 310.10626 288.01147 309.46564Q288.69897 308.825 289.80835 308.825Q290.93335 308.825 291.62085 309.48126Q292.30835 310.1375 292.30835 311.075Q292.30835 311.66876 291.99585 312.10626Q291.68335 312.54376 291.04272 312.79376Q291.8396 313.04376 292.24585 313.6219Q292.6521 314.2 292.6521 314.9969Q292.6521 316.09064 291.87085 316.84064Q291.10522 317.59064 289.82397 317.59064Q288.55835 317.59064 287.7771 316.84064Q286.99585 316.09064 286.99585 314.96564Q286.99585 314.1219 287.41772 313.5594Q287.85522 312.9969 288.63647 312.79376ZM288.41772 310.9969Q288.41772 311.60626 288.80835 311.9969Q289.2146 312.3875 289.8396 312.3875Q290.44897 312.3875 290.8396 312.0125Q291.23022 311.6219 291.23022 311.0594Q291.23022 310.48126 290.82397 310.09064Q290.41772 309.6844 289.82397 309.6844Q289.2146 309.6844 288.80835 310.075Q288.41772 310.46564 288.41772 310.9969ZM288.0896 314.96564Q288.0896 315.41876 288.29272 315.84064Q288.51147 316.2625 288.93335 316.4969Q289.35522 316.73126 289.8396 316.73126Q290.5896 316.73126 291.07397 316.2469Q291.57397 315.7625 291.57397 315.0125Q291.57397 314.2469 291.07397 313.7469Q290.57397 313.2469 289.80835 313.2469Q289.05835 313.2469 288.57397 313.7469Q288.0896 314.23126 288.0896 314.96564Z" fill-rule="nonzero"/><path fill="#000000" d="M348.28845 313.21564Q348.28845 311.6844 348.60095 310.7625Q348.91345 309.825 349.52283 309.325Q350.14783 308.825 351.08533 308.825Q351.77283 308.825 352.28845 309.10626Q352.8197 309.3875 353.16345 309.91876Q353.5072 310.4344 353.6947 311.1844Q353.8822 311.9344 353.8822 313.21564Q353.8822 314.73126 353.5697 315.65314Q353.27283 316.575 352.64783 317.09064Q352.03845 317.59064 351.08533 317.59064Q349.85095 317.59064 349.1322 316.7Q348.28845 315.6375 348.28845 313.21564ZM349.36658 313.21564Q349.36658 315.325 349.86658 316.02814Q350.36658 316.73126 351.08533 316.73126Q351.8197 316.73126 352.30408 316.02814Q352.80408 315.325 352.80408 313.21564Q352.80408 311.09064 352.30408 310.40314Q351.8197 309.7 351.0697 309.7Q350.35095 309.7 349.91345 310.3094Q349.36658 311.09064 349.36658 313.21564ZM355.8822 317.45L355.8822 316.2469L357.08533 316.2469L357.08533 317.45L355.8822 317.45ZM358.28845 313.21564Q358.28845 311.6844 358.60095 310.7625Q358.91345 309.825 359.52283 309.325Q360.14783 308.825 361.08533 308.825Q361.77283 308.825 362.28845 309.10626Q362.8197 309.3875 363.16345 309.91876Q363.5072 310.4344 363.6947 311.1844Q363.8822 311.9344 363.8822 313.21564Q363.8822 314.73126 363.5697 315.65314Q363.27283 316.575 362.64783 317.09064Q362.03845 317.59064 361.08533 317.59064Q359.85095 317.59064 359.1322 316.7Q358.28845 315.6375 358.28845 313.21564ZM359.36658 313.21564Q359.36658 315.325 359.86658 316.02814Q360.36658 316.73126 361.08533 316.73126Q361.8197 316.73126 362.30408 316.02814Q362.80408 315.325 362.80408 313.21564Q362.80408 311.09064 362.30408 310.40314Q361.8197 309.7 361.0697 309.7Q360.35095 309.7 359.91345 310.3094Q359.36658 311.09064 359.36658 313.21564ZM365.28845 313.21564Q365.28845 311.6844 365.60095 310.7625Q365.91345 309.825 366.52283 309.325Q367.14783 308.825 368.08533 308.825Q368.77283 308.825 369.28845 309.10626Q369.8197 309.3875 370.16345 309.91876Q370.5072 310.4344 370.6947 311.1844Q370.8822 311.9344 370.8822 313.21564Q370.8822 314.73126 370.5697 315.65314Q370.27283 316.575 369.64783 317.09064Q369.03845 317.59064 368.08533 317.59064Q366.85095 317.59064 366.1322 316.7Q365.28845 315.6375 365.28845 313.21564ZM366.36658 313.21564Q366.36658 315.325 366.86658 316.02814Q367.36658 316.73126 368.08533 316.73126Q368.8197 316.73126 369.30408 316.02814Q369.80408 315.325 369.80408 313.21564Q369.80408 311.09064 369.30408 310.40314Q368.8197 309.7 368.0697 309.7Q367.35095 309.7 366.91345 310.3094Q366.36658 311.09064 366.36658 313.21564ZM376.2572 317.45L375.21033 317.45L375.21033 310.73126Q374.8197 311.09064 374.1947 311.46564Q373.58533 311.825 373.10095 311.9969L373.10095 310.98126Q373.97595 310.5594 374.6322 309.98126Q375.30408 309.3875 375.58533 308.825L376.2572 308.825L376.2572 317.45ZM379.4447 315.46564L380.46033 315.3719Q380.58533 316.09064 380.9447 316.41876Q381.3197 316.73126 381.8822 316.73126Q382.36658 316.73126 382.72595 316.5125Q383.10095 316.27814 383.33533 315.91876Q383.5697 315.54376 383.72595 314.91876Q383.8822 314.27814 383.8822 313.6219Q383.8822 313.54376 383.8822 313.40314Q383.5697 313.90314 383.02283 314.23126Q382.47595 314.54376 381.83533 314.54376Q380.7572 314.54376 380.02283 313.77814Q379.28845 312.9969 379.28845 311.73126Q379.28845 310.41876 380.05408 309.6219Q380.83533 308.825 381.99158 308.825Q382.8197 308.825 383.5072 309.27814Q384.21033 309.73126 384.5697 310.575Q384.92908 311.40314 384.92908 312.98126Q384.92908 314.6219 384.5697 315.60626Q384.22595 316.575 383.5072 317.09064Q382.80408 317.59064 381.86658 317.59064Q380.85095 317.59064 380.21033 317.04376Q379.5697 316.48126 379.4447 315.46564ZM383.7572 311.66876Q383.7572 310.7625 383.27283 310.23126Q382.80408 309.7 382.11658 309.7Q381.41345 309.7 380.8822 310.27814Q380.36658 310.84064 380.36658 311.7625Q380.36658 312.575 380.86658 313.09064Q381.36658 313.60626 382.08533 313.60626Q382.8197 313.60626 383.28845 313.09064Q383.7572 312.575 383.7572 311.66876Z" fill-rule="nonzero"/><path fill="#000000" d="M440.56546 313.21564Q440.56546 311.6844 440.87796 310.7625Q441.19046 309.825 441.79984 309.325Q442.42484 308.825 443.36234 308.825Q444.04984 308.825 444.56546 309.10626Q445.0967 309.3875 445.44046 309.91876Q445.7842 310.4344 445.9717 311.1844Q446.1592 311.9344 446.1592 313.21564Q446.1592 314.73126 445.8467 315.65314Q445.54984 316.575 444.92484 317.09064Q444.31546 317.59064 443.36234 317.59064Q442.12796 317.59064 441.4092 316.7Q440.56546 315.6375 440.56546 313.21564ZM441.6436 313.21564Q441.6436 315.325 442.1436 316.02814Q442.6436 316.73126 443.36234 316.73126Q444.0967 316.73126 444.5811 316.02814Q445.0811 315.325 445.0811 313.21564Q445.0811 311.09064 444.5811 310.40314Q444.0967 309.7 443.3467 309.7Q442.62796 309.7 442.19046 310.3094Q441.6436 311.09064 441.6436 313.21564ZM448.1592 317.45L448.1592 316.2469L449.36234 316.2469L449.36234 317.45L448.1592 317.45ZM450.56546 313.21564Q450.56546 311.6844 450.87796 310.7625Q451.19046 309.825 451.79984 309.325Q452.42484 308.825 453.36234 308.825Q454.04984 308.825 454.56546 309.10626Q455.0967 309.3875 455.44046 309.91876Q455.7842 310.4344 455.9717 311.1844Q456.1592 311.9344 456.1592 313.21564Q456.1592 314.73126 455.8467 315.65314Q455.54984 316.575 454.92484 317.09064Q454.31546 317.59064 453.36234 317.59064Q452.12796 317.59064 451.4092 316.7Q450.56546 315.6375 450.56546 313.21564ZM451.6436 313.21564Q451.6436 315.325 452.1436 316.02814Q452.6436 316.73126 453.36234 316.73126Q454.0967 316.73126 454.5811 316.02814Q455.0811 315.325 455.0811 313.21564Q455.0811 311.09064 454.5811 310.40314Q454.0967 309.7 453.3467 309.7Q452.62796 309.7 452.19046 310.3094Q451.6436 311.09064 451.6436 313.21564ZM457.56546 313.21564Q457.56546 311.6844 457.87796 310.7625Q458.19046 309.825 458.79984 309.325Q459.42484 308.825 460.36234 308.825Q461.04984 308.825 461.56546 309.10626Q462.0967 309.3875 462.44046 309.91876Q462.7842 310.4344 462.9717 311.1844Q463.1592 311.9344 463.1592 313.21564Q463.1592 314.73126 462.8467 315.65314Q462.54984 316.575 461.92484 317.09064Q461.31546 317.59064 460.36234 317.59064Q459.12796 317.59064 458.4092 316.7Q457.56546 315.6375 457.56546 313.21564ZM458.6436 313.21564Q458.6436 315.325 459.1436 316.02814Q459.6436 316.73126 460.36234 316.73126Q461.0967 316.73126 461.5811 316.02814Q462.0811 315.325 462.0811 313.21564Q462.0811 311.09064 461.5811 310.40314Q461.0967 309.7 460.3467 309.7Q459.62796 309.7 459.19046 310.3094Q458.6436 311.09064 458.6436 313.21564ZM470.11234 316.4344L470.11234 317.45L464.42484 317.45Q464.42484 317.075 464.54984 316.71564Q464.7686 316.1375 465.23734 315.575Q465.7217 315.0125 466.62796 314.27814Q468.0342 313.1219 468.5186 312.45Q469.0186 311.77814 469.0186 311.1844Q469.0186 310.5594 468.56546 310.1375Q468.11234 309.7 467.3936 309.7Q466.62796 309.7 466.17484 310.15314Q465.7217 310.60626 465.7061 311.41876L464.62796 311.3094Q464.73734 310.09064 465.4561 309.46564Q466.19046 308.825 467.42484 308.825Q468.6592 308.825 469.37796 309.5125Q470.0967 310.2 470.0967 311.21564Q470.0967 311.73126 469.87796 312.23126Q469.67484 312.71564 469.17484 313.27814Q468.69046 313.825 467.56546 314.77814Q466.61234 315.575 466.3311 315.8719Q466.06546 316.15314 465.8936 316.4344L470.11234 316.4344ZM471.56546 313.21564Q471.56546 311.6844 471.87796 310.7625Q472.19046 309.825 472.79984 309.325Q473.42484 308.825 474.36234 308.825Q475.04984 308.825 475.56546 309.10626Q476.0967 309.3875 476.44046 309.91876Q476.7842 310.4344 476.9717 311.1844Q477.1592 311.9344 477.1592 313.21564Q477.1592 314.73126 476.8467 315.65314Q476.54984 316.575 475.92484 317.09064Q475.31546 317.59064 474.36234 317.59064Q473.12796 317.59064 472.4092 316.7Q471.56546 315.6375 471.56546 313.21564ZM472.6436 313.21564Q472.6436 315.325 473.1436 316.02814Q473.6436 316.73126 474.36234 316.73126Q475.0967 316.73126 475.5811 316.02814Q476.0811 315.325 476.0811 313.21564Q476.0811 311.09064 475.5811 310.40314Q475.0967 309.7 474.3467 309.7Q473.62796 309.7 473.19046 310.3094Q472.6436 311.09064 472.6436 313.21564Z" fill-rule="nonzero"/><path fill="#000000" d="M532.84247 313.21564Q532.84247 311.6844 533.15497 310.7625Q533.46747 309.825 534.07684 309.325Q534.70184 308.825 535.63934 308.825Q536.32684 308.825 536.84247 309.10626Q537.3737 309.3875 537.71747 309.91876Q538.0612 310.4344 538.2487 311.1844Q538.4362 311.9344 538.4362 313.21564Q538.4362 314.73126 538.1237 315.65314Q537.82684 316.575 537.20184 317.09064Q536.59247 317.59064 535.63934 317.59064Q534.40497 317.59064 533.6862 316.7Q532.84247 315.6375 532.84247 313.21564ZM533.9206 313.21564Q533.9206 315.325 534.4206 316.02814Q534.9206 316.73126 535.63934 316.73126Q536.3737 316.73126 536.8581 316.02814Q537.3581 315.325 537.3581 313.21564Q537.3581 311.09064 536.8581 310.40314Q536.3737 309.7 535.6237 309.7Q534.90497 309.7 534.46747 310.3094Q533.9206 311.09064 533.9206 313.21564ZM540.4362 317.45L540.4362 316.2469L541.63934 316.2469L541.63934 317.45L540.4362 317.45ZM542.84247 313.21564Q542.84247 311.6844 543.15497 310.7625Q543.46747 309.825 544.07684 309.325Q544.70184 308.825 545.63934 308.825Q546.32684 308.825 546.84247 309.10626Q547.3737 309.3875 547.71747 309.91876Q548.0612 310.4344 548.2487 311.1844Q548.4362 311.9344 548.4362 313.21564Q548.4362 314.73126 548.1237 315.65314Q547.82684 316.575 547.20184 317.09064Q546.59247 317.59064 545.63934 317.59064Q544.40497 317.59064 543.6862 316.7Q542.84247 315.6375 542.84247 313.21564ZM543.9206 313.21564Q543.9206 315.325 544.4206 316.02814Q544.9206 316.73126 545.63934 316.73126Q546.3737 316.73126 546.8581 316.02814Q547.3581 315.325 547.3581 313.21564Q547.3581 311.09064 546.8581 310.40314Q546.3737 309.7 545.6237 309.7Q544.90497 309.7 544.46747 310.3094Q543.9206 311.09064 543.9206 313.21564ZM549.84247 313.21564Q549.84247 311.6844 550.15497 310.7625Q550.46747 309.825 551.07684 309.325Q551.70184 308.825 552.63934 308.825Q553.32684 308.825 553.84247 309.10626Q554.3737 309.3875 554.71747 309.91876Q555.0612 310.4344 555.2487 311.1844Q555.4362 311.9344 555.4362 313.21564Q555.4362 314.73126 555.1237 315.65314Q554.82684 316.575 554.20184 317.09064Q553.59247 317.59064 552.63934 317.59064Q551.40497 317.59064 550.6862 316.7Q549.84247 315.6375 549.84247 313.21564ZM550.9206 313.21564Q550.9206 315.325 551.4206 316.02814Q551.9206 316.73126 552.63934 316.73126Q553.3737 316.73126 553.8581 316.02814Q554.3581 315.325 554.3581 313.21564Q554.3581 311.09064 553.8581 310.40314Q553.3737 309.7 552.6237 309.7Q551.90497 309.7 551.46747 310.3094Q550.9206 311.09064 550.9206 313.21564ZM562.38934 316.4344L562.38934 317.45L556.70184 317.45Q556.70184 317.075 556.82684 316.71564Q557.0456 316.1375 557.51434 315.575Q557.9987 315.0125 558.90497 314.27814Q560.3112 313.1219 560.7956 312.45Q561.2956 311.77814 561.2956 311.1844Q561.2956 310.5594 560.84247 310.1375Q560.38934 309.7 559.6706 309.7Q558.90497 309.7 558.45184 310.15314Q557.9987 310.60626 557.9831 311.41876L556.90497 311.3094Q557.01434 310.09064 557.7331 309.46564Q558.46747 308.825 559.70184 308.825Q560.9362 308.825 561.65497 309.5125Q562.3737 310.2 562.3737 311.21564Q562.3737 311.73126 562.15497 312.23126Q561.95184 312.71564 561.45184 313.27814Q560.96747 313.825 559.84247 314.77814Q558.88934 315.575 558.6081 315.8719Q558.34247 316.15314 558.1706 316.4344L562.38934 316.4344ZM567.8112 317.45L566.76434 317.45L566.76434 310.73126Q566.3737 311.09064 565.7487 311.46564Q565.13934 311.825 564.65497 311.9969L564.65497 310.98126Q565.52997 310.5594 566.1862 309.98126Q566.8581 309.3875 567.13934 308.825L567.8112 308.825L567.8112 317.45Z" fill-rule="nonzero"/><path fill="#4285f4" d="M176.5 61.916668C176.5 65.23038 173.8137 67.916664 170.5 67.916664C167.1863 67.916664 164.5 65.23038 164.5 61.916668C164.5 58.60296 167.1863 55.916668 170.5 55.916668C173.8137 55.916668 176.5 58.60296 176.5 61.916668Z" fill-rule="nonzero"/><path fill="#1a1a1a" d="M185.29688 65.916664L185.29688 57.322914L186.35938 57.322914L186.35938 62.229164L188.84375 59.697914L190.21875 59.697914L187.82812 61.99479L190.45312 65.916664L189.15625 65.916664L187.09375 62.729164L186.35938 63.447914L186.35938 65.916664L185.29688 65.916664ZM191.29688 65.916664L191.29688 59.697914L192.23438 59.697914L192.23438 60.572914Q192.92188 59.55729 194.21875 59.55729Q194.78125 59.55729 195.25 59.760414Q195.73438 59.96354 195.96875 60.291664Q196.20312 60.61979 196.29688 61.05729Q196.34375 61.354164 196.34375 62.08854L196.34375 65.916664L195.29688 65.916664L195.29688 62.135414Q195.29688 61.479164 195.17188 61.166664Q195.04688 60.854164 194.73438 60.666664Q194.42188 60.46354 194.0 60.46354Q193.32812 60.46354 192.82812 60.90104Q192.34375 61.322914 192.34375 62.510414L192.34375 65.916664L191.29688 65.916664ZM202.54688 63.916664L203.64062 64.041664Q203.39062 64.99479 202.6875 65.52604Q201.98438 66.05729 200.90625 66.05729Q199.54688 66.05729 198.73438 65.21354Q197.9375 64.36979 197.9375 62.854164Q197.9375 61.291664 198.75 60.43229Q199.5625 59.55729 200.84375 59.55729Q202.09375 59.55729 202.875 60.40104Q203.67188 61.24479 203.67188 62.791664Q203.67188 62.885414 203.67188 63.072914L199.03125 63.072914Q199.09375 64.104164 199.60938 64.65104Q200.125 65.18229 200.90625 65.18229Q201.48438 65.18229 201.89062 64.885414Q202.3125 64.572914 202.54688 63.916664ZM199.09375 62.21354L202.5625 62.21354Q202.5 61.416664 202.17188 61.02604Q201.65625 60.416664 200.85938 60.416664Q200.125 60.416664 199.625 60.90104Q199.14062 61.385414 199.09375 62.21354ZM209.54688 63.916664L210.64062 64.041664Q210.39062 64.99479 209.6875 65.52604Q208.98438 66.05729 207.90625 66.05729Q206.54688 66.05729 205.73438 65.21354Q204.9375 64.36979 204.9375 62.854164Q204.9375 61.291664 205.75 60.43229Q206.5625 59.55729 207.84375 59.55729Q209.09375 59.55729 209.875 60.40104Q210.67188 61.24479 210.67188 62.791664Q210.67188 62.885414 210.67188 63.072914L206.03125 63.072914Q206.09375 64.104164 206.60938 64.65104Q207.125 65.18229 207.90625 65.18229Q208.48438 65.18229 208.89062 64.885414Q209.3125 64.572914 209.54688 63.916664ZM206.09375 62.21354L209.5625 62.21354Q209.5 61.416664 209.17188 61.02604Q208.65625 60.416664 207.85938 60.416664Q207.125 60.416664 206.625 60.90104Q206.14062 61.385414 206.09375 62.21354ZM217.01562 65.916664L214.65625 59.697914L215.76562 59.697914L217.10938 63.416664Q217.3125 64.02604 217.5 64.666664Q217.64062 64.18229 217.89062 63.49479L219.28125 59.697914L220.35938 59.697914L218.0 65.916664L217.01562 65.916664ZM219.90625 62.80729Q219.90625 61.072914 220.85938 60.24479Q221.65625 59.55729 222.8125 59.55729Q224.09375 59.55729 224.90625 60.40104Q225.73438 61.229164 225.73438 62.71354Q225.73438 63.916664 225.375 64.604164Q225.01562 65.291664 224.3125 65.68229Q223.625 66.05729 222.8125 66.05729Q221.51562 66.05729 220.70312 65.229164Q219.90625 64.385414 219.90625 62.80729ZM220.98438 62.80729Q220.98438 63.99479 221.5 64.58854Q222.03125 65.18229 222.8125 65.18229Q223.60938 65.18229 224.125 64.58854Q224.64062 63.99479 224.64062 62.77604Q224.64062 61.61979 224.10938 61.02604Q223.59375 60.43229 222.8125 60.43229Q222.03125 60.43229 221.5 61.02604Q220.98438 61.604164 220.98438 62.80729ZM227.26562 65.916664L227.26562 57.322914L228.32812 57.322914L228.32812 65.916664L227.26562 65.916664ZM232.59375 64.979164L232.75 65.90104Q232.29688 65.99479 231.95312 65.99479Q231.375 65.99479 231.0625 65.822914Q230.75 65.635414 230.60938 65.33854Q230.48438 65.041664 230.48438 64.08854L230.48438 60.510414L229.71875 60.510414L229.71875 59.697914L230.48438 59.697914L230.48438 58.15104L231.53125 57.52604L231.53125 59.697914L232.59375 59.697914L232.59375 60.510414L231.53125 60.510414L231.53125 64.15104Q231.53125 64.604164 231.57812 64.729164Q231.64062 64.854164 231.76562 64.93229Q231.89062 65.010414 232.125 65.010414Q232.3125 65.010414 232.59375 64.979164ZM237.35938 65.15104Q236.76562 65.65104 236.21875 65.854164Q235.6875 66.05729 235.0625 66.05729Q234.03125 66.05729 233.48438 65.55729Q232.9375 65.05729 232.9375 64.27604Q232.9375 63.822914 233.14062 63.447914Q233.34375 63.05729 233.6875 62.83854Q234.03125 62.604164 234.45312 62.49479Q234.75 62.40104 235.39062 62.322914Q236.65625 62.18229 237.26562 61.96354Q237.26562 61.74479 237.26562 61.697914Q237.26562 61.041664 236.96875 60.77604Q236.5625 60.43229 235.76562 60.43229Q235.03125 60.43229 234.67188 60.697914Q234.3125 60.947914 234.14062 61.604164L233.10938 61.46354Q233.25 60.80729 233.57812 60.40104Q233.90625 59.99479 234.51562 59.77604Q235.125 59.55729 235.92188 59.55729Q236.71875 59.55729 237.21875 59.74479Q237.71875 59.93229 237.95312 60.21354Q238.1875 60.49479 238.28125 60.93229Q238.32812 61.197914 238.32812 61.90104L238.32812 63.30729Q238.32812 64.77604 238.39062 65.166664Q238.46875 65.55729 238.67188 65.916664L237.5625 65.916664Q237.40625 65.58854 237.35938 65.15104ZM237.26562 62.791664Q236.6875 63.02604 235.54688 63.197914Q234.89062 63.291664 234.625 63.416664Q234.35938 63.52604 234.20312 63.74479Q234.0625 63.96354 234.0625 64.24479Q234.0625 64.666664 234.375 64.947914Q234.70312 65.229164 235.3125 65.229164Q235.92188 65.229164 236.39062 64.96354Q236.875 64.697914 237.09375 64.229164Q237.26562 63.86979 237.26562 63.18229L237.26562 62.791664ZM240.09375 66.43229L241.125 66.58854Q241.1875 67.05729 241.48438 67.27604Q241.875 67.572914 242.54688 67.572914Q243.28125 67.572914 243.67188 67.27604Q244.07812 66.979164 244.21875 66.46354Q244.3125 66.135414 244.29688 65.104164Q243.60938 65.916664 242.57812 65.916664Q241.29688 65.916664 240.59375 64.99479Q239.89062 64.05729 239.89062 62.77604Q239.89062 61.885414 240.20312 61.135414Q240.53125 60.36979 241.14062 59.96354Q241.75 59.55729 242.57812 59.55729Q243.6875 59.55729 244.40625 60.447914L244.40625 59.697914L245.375 59.697914L245.375 65.072914Q245.375 66.52604 245.07812 67.135414Q244.78125 67.74479 244.14062 68.08854Q243.5 68.447914 242.5625 68.447914Q241.45312 68.447914 240.76562 67.947914Q240.07812 67.447914 240.09375 66.43229ZM240.96875 62.697914Q240.96875 63.916664 241.45312 64.479164Q241.9375 65.041664 242.67188 65.041664Q243.40625 65.041664 243.89062 64.479164Q244.39062 63.916664 244.39062 62.729164Q244.39062 61.58854 243.875 61.010414Q243.375 60.43229 242.65625 60.43229Q241.95312 60.43229 241.45312 61.010414Q240.96875 61.572914 240.96875 62.697914ZM251.54688 63.916664L252.64062 64.041664Q252.39062 64.99479 251.6875 65.52604Q250.98438 66.05729 249.90625 66.05729Q248.54688 66.05729 247.73438 65.21354Q246.9375 64.36979 246.9375 62.854164Q246.9375 61.291664 247.75 60.43229Q248.5625 59.55729 249.84375 59.55729Q251.09375 59.55729 251.875 60.40104Q252.67188 61.24479 252.67188 62.791664Q252.67188 62.885414 252.67188 63.072914L248.03125 63.072914Q248.09375 64.104164 248.60938 64.65104Q249.125 65.18229 249.90625 65.18229Q250.48438 65.18229 250.89062 64.885414Q251.3125 64.572914 251.54688 63.916664ZM248.09375 62.21354L251.5625 62.21354Q251.5 61.416664 251.17188 61.02604Q250.65625 60.416664 249.85938 60.416664Q249.125 60.416664 248.625 60.90104Q248.14062 61.385414 248.09375 62.21354Z" fill-rule="nonzero"/><path stroke="#4285f4" stroke-width="4.0" stroke-linecap="butt" stroke-opacity="0.4" d="M269.5 61.916668L281.5 61.916668" fill-rule="nonzero"/><path fill="#1a1a1a" d="M293.96875 65.916664L292.92188 65.916664L292.92188 59.197914Q292.53125 59.55729 291.90625 59.93229Q291.29688 60.291664 290.8125 60.46354L290.8125 59.447914Q291.6875 59.02604 292.34375 58.447914Q293.01562 57.854164 293.29688 57.291664L293.96875 57.291664L293.96875 65.916664ZM297.0 63.65104L298.0625 63.510414Q298.23438 64.40104 298.67188 64.80729Q299.10938 65.197914 299.73438 65.197914Q300.48438 65.197914 301.0 64.68229Q301.51562 64.166664 301.51562 63.40104Q301.51562 62.68229 301.03125 62.21354Q300.5625 61.729164 299.82812 61.729164Q299.53125 61.729164 299.07812 61.854164L299.20312 60.916664Q299.3125 60.93229 299.375 60.93229Q300.04688 60.93229 300.57812 60.58854Q301.125 60.229164 301.125 59.49479Q301.125 58.916664 300.73438 58.541664Q300.34375 58.15104 299.71875 58.15104Q299.10938 58.15104 298.6875 58.541664Q298.28125 58.93229 298.17188 59.697914L297.10938 59.510414Q297.29688 58.46354 297.98438 57.885414Q298.67188 57.291664 299.6875 57.291664Q300.39062 57.291664 300.98438 57.604164Q301.57812 57.90104 301.89062 58.416664Q302.20312 58.93229 302.20312 59.52604Q302.20312 60.072914 301.90625 60.541664Q301.60938 60.99479 301.03125 61.260414Q301.78125 61.43229 302.20312 61.99479Q302.625 62.541664 302.625 63.385414Q302.625 64.510414 301.79688 65.291664Q300.98438 66.072914 299.73438 66.072914Q298.60938 66.072914 297.85938 65.40104Q297.10938 64.71354 297.0 63.65104ZM309.46875 59.43229L308.42188 59.510414Q308.28125 58.885414 308.03125 58.604164Q307.59375 58.15104 306.96875 58.15104Q306.46875 58.15104 306.07812 58.43229Q305.59375 58.80729 305.29688 59.510414Q305.01562 60.197914 305.0 61.479164Q305.375 60.90104 305.92188 60.61979Q306.48438 60.33854 307.09375 60.33854Q308.14062 60.33854 308.875 61.11979Q309.625 61.90104 309.625 63.11979Q309.625 63.93229 309.26562 64.635414Q308.92188 65.322914 308.3125 65.697914Q307.70312 66.05729 306.9375 66.05729Q305.60938 66.05729 304.78125 65.08854Q303.95312 64.11979 303.95312 61.90104Q303.95312 59.40104 304.875 58.27604Q305.67188 57.291664 307.03125 57.291664Q308.04688 57.291664 308.6875 57.86979Q309.34375 58.43229 309.46875 59.43229ZM305.17188 63.135414Q305.17188 63.68229 305.39062 64.18229Q305.625 64.666664 306.03125 64.93229Q306.45312 65.197914 306.92188 65.197914Q307.57812 65.197914 308.0625 64.666664Q308.54688 64.11979 308.54688 63.197914Q308.54688 62.30729 308.0625 61.791664Q307.59375 61.27604 306.875 61.27604Q306.15625 61.27604 305.65625 61.791664Q305.17188 62.30729 305.17188 63.135414ZM311.0625 58.447914L311.0625 57.43229L316.625 57.43229L316.625 58.260414Q315.8125 59.135414 315.0 60.58854Q314.20312 62.02604 313.76562 63.55729Q313.4375 64.635414 313.35938 65.916664L312.26562 65.916664Q312.28125 64.90104 312.65625 63.46354Q313.04688 62.02604 313.75 60.697914Q314.46875 59.36979 315.28125 58.447914L311.0625 58.447914ZM317.875 58.90104L318.14062 58.072914Q319.07812 58.40104 319.5 58.635414Q319.39062 57.572914 319.375 57.18229L320.23438 57.18229Q320.21875 57.760414 320.09375 58.635414Q320.70312 58.322914 321.48438 58.072914L321.75 58.90104Q321.0 59.15104 320.29688 59.229164Q320.64062 59.541664 321.29688 60.33854L320.59375 60.83854Q320.25 60.36979 319.79688 59.572914Q319.35938 60.40104 319.03125 60.83854L318.34375 60.33854Q319.01562 59.49479 319.3125 59.229164Q318.5625 59.08854 317.875 58.90104ZM322.59375 65.916664L324.85938 62.68229L322.76562 59.697914L324.07812 59.697914L325.03125 61.15104Q325.29688 61.572914 325.46875 61.854164Q325.71875 61.46354 325.9375 61.166664L326.98438 59.697914L328.25 59.697914L326.09375 62.61979L328.40625 65.916664L327.125 65.916664L325.84375 63.979164L325.5 63.46354L323.85938 65.916664L322.59375 65.916664ZM333.5 64.52604L333.5 62.166664L331.17188 62.166664L331.17188 61.18229L333.5 61.18229L333.5 58.854164L334.5 58.854164L334.5 61.18229L336.84375 61.18229L336.84375 62.166664L334.5 62.166664L334.5 64.52604L333.5 64.52604ZM340.875 63.33854L340.875 62.27604L344.125 62.27604L344.125 63.33854L340.875 63.33854ZM345.0 61.68229Q345.0 60.15104 345.3125 59.229164Q345.625 58.291664 346.23438 57.791664Q346.85938 57.291664 347.79688 57.291664Q348.48438 57.291664 349.0 57.572914Q349.53125 57.854164 349.875 58.385414Q350.21875 58.90104 350.40625 59.65104Q350.59375 60.40104 350.59375 61.68229Q350.59375 63.197914 350.28125 64.11979Q349.98438 65.041664 349.35938 65.55729Q348.75 66.05729 347.79688 66.05729Q346.5625 66.05729 345.84375 65.166664Q345.0 64.104164 345.0 61.68229ZM346.07812 61.68229Q346.07812 63.791664 346.57812 64.49479Q347.07812 65.197914 347.79688 65.197914Q348.53125 65.197914 349.01562 64.49479Q349.51562 63.791664 349.51562 61.68229Q349.51562 59.55729 349.01562 58.86979Q348.53125 58.166664 347.78125 58.166664Q347.0625 58.166664 346.625 58.77604Q346.07812 59.55729 346.07812 61.68229ZM352.59375 65.916664L352.59375 64.71354L353.79688 64.71354L353.79688 65.916664L352.59375 65.916664ZM355.0 63.65104L356.0625 63.510414Q356.23438 64.40104 356.67188 64.80729Q357.10938 65.197914 357.73438 65.197914Q358.48438 65.197914 359.0 64.68229Q359.51562 64.166664 359.51562 63.40104Q359.51562 62.68229 359.03125 62.21354Q358.5625 61.729164 357.82812 61.729164Q357.53125 61.729164 357.07812 61.854164L357.20312 60.916664Q357.3125 60.93229 357.375 60.93229Q358.04688 60.93229 358.57812 60.58854Q359.125 60.229164 359.125 59.49479Q359.125 58.916664 358.73438 58.541664Q358.34375 58.15104 357.71875 58.15104Q357.10938 58.15104 356.6875 58.541664Q356.28125 58.93229 356.17188 59.697914L355.10938 59.510414Q355.29688 58.46354 355.98438 57.885414Q356.67188 57.291664 357.6875 57.291664Q358.39062 57.291664 358.98438 57.604164Q359.57812 57.90104 359.89062 58.416664Q360.20312 58.93229 360.20312 59.52604Q360.20312 60.072914 359.90625 60.541664Q359.60938 60.99479 359.03125 61.260414Q359.78125 61.43229 360.20312 61.99479Q360.625 62.541664 360.625 63.385414Q360.625 64.510414 359.79688 65.291664Q358.98438 66.072914 357.73438 66.072914Q356.60938 66.072914 355.85938 65.40104Q355.10938 64.71354 355.0 63.65104ZM365.375 65.916664L365.375 63.854164L361.65625 63.854164L361.65625 62.885414L365.57812 57.322914L366.4375 57.322914L366.4375 62.885414L367.59375 62.885414L367.59375 63.854164L366.4375 63.854164L366.4375 65.916664L365.375 65.916664ZM365.375 62.885414L365.375 59.02604L362.6875 62.885414L365.375 62.885414ZM370.625 61.260414Q369.96875 61.010414 369.64062 60.572914Q369.32812 60.11979 369.32812 59.510414Q369.32812 58.572914 370.0 57.93229Q370.6875 57.291664 371.79688 57.291664Q372.92188 57.291664 373.60938 57.947914Q374.29688 58.604164 374.29688 59.541664Q374.29688 60.135414 373.98438 60.572914Q373.67188 61.010414 373.03125 61.260414Q373.82812 61.510414 374.23438 62.08854Q374.64062 62.666664 374.64062 63.46354Q374.64062 64.55729 373.85938 65.30729Q373.09375 66.05729 371.8125 66.05729Q370.54688 66.05729 369.76562 65.30729Q368.98438 64.55729 368.98438 63.43229Q368.98438 62.58854 369.40625 62.02604Q369.84375 61.46354 370.625 61.260414ZM370.40625 59.46354Q370.40625 60.072914 370.79688 60.46354Q371.20312 60.854164 371.82812 60.854164Q372.4375 60.854164 372.82812 60.479164Q373.21875 60.08854 373.21875 59.52604Q373.21875 58.947914 372.8125 58.55729Q372.40625 58.15104 371.8125 58.15104Q371.20312 58.15104 370.79688 58.541664Q370.40625 58.93229 370.40625 59.46354ZM370.07812 63.43229Q370.07812 63.885414 370.28125 64.30729Q370.5 64.729164 370.92188 64.96354Q371.34375 65.197914 371.82812 65.197914Q372.57812 65.197914 373.0625 64.71354Q373.5625 64.229164 373.5625 63.479164Q373.5625 62.71354 373.0625 62.21354Q372.5625 61.71354 371.79688 61.71354Q371.04688 61.71354 370.5625 62.21354Q370.07812 62.697914 370.07812 63.43229ZM379.4375 65.916664L379.4375 57.322914L383.25 57.322914Q384.40625 57.322914 385.0 57.55729Q385.59375 57.791664 385.95312 58.385414Q386.3125 58.96354 386.3125 59.666664Q386.3125 60.58854 385.71875 61.21354Q385.125 61.83854 383.89062 62.010414Q384.34375 62.229164 384.57812 62.43229Q385.07812 62.885414 385.51562 63.572914L387.01562 65.916664L385.57812 65.916664L384.45312 64.135414Q383.95312 63.354164 383.625 62.947914Q383.3125 62.541664 383.04688 62.385414Q382.79688 62.21354 382.53125 62.135414Q382.34375 62.104164 381.90625 62.104164L380.57812 62.104164L380.57812 65.916664L379.4375 65.916664ZM380.57812 61.11979L383.03125 61.11979Q383.79688 61.11979 384.23438 60.96354Q384.6875 60.791664 384.90625 60.447914Q385.14062 60.08854 385.14062 59.666664Q385.14062 59.05729 384.6875 58.666664Q384.25 58.27604 383.29688 58.27604L380.57812 58.27604L380.57812 61.11979ZM387.64062 61.61979Q387.6875 61.291664 387.92188 60.947914Q388.29688 60.447914 389.14062 59.83854Q389.98438 59.229164 390.14062 59.041664Q390.35938 58.80729 390.35938 58.55729Q390.35938 58.27604 390.14062 58.104164Q389.9375 57.916664 389.54688 57.916664Q389.15625 57.916664 388.96875 58.05729Q388.78125 58.18229 388.65625 58.572914L387.76562 58.479164Q387.9375 57.83854 388.35938 57.52604Q388.78125 57.21354 389.5625 57.21354Q390.45312 57.21354 390.85938 57.572914Q391.28125 57.916664 391.28125 58.416664Q391.28125 58.90104 390.92188 59.33854Q390.67188 59.666664 389.73438 60.33854Q389.23438 60.697914 389.03125 60.916664L391.29688 60.916664L391.29688 61.61979L387.64062 61.61979ZM400.84375 60.86979L395.17188 60.86979L395.17188 59.885414L400.84375 59.885414L400.84375 60.86979ZM400.84375 63.479164L395.17188 63.479164L395.17188 62.49479L400.84375 62.49479L400.84375 63.479164ZM405.0 61.68229Q405.0 60.15104 405.3125 59.229164Q405.625 58.291664 406.23438 57.791664Q406.85938 57.291664 407.79688 57.291664Q408.48438 57.291664 409.0 57.572914Q409.53125 57.854164 409.875 58.385414Q410.21875 58.90104 410.40625 59.65104Q410.59375 60.40104 410.59375 61.68229Q410.59375 63.197914 410.28125 64.11979Q409.98438 65.041664 409.35938 65.55729Q408.75 66.05729 407.79688 66.05729Q406.5625 66.05729 405.84375 65.166664Q405.0 64.104164 405.0 61.68229ZM406.07812 61.68229Q406.07812 63.791664 406.57812 64.49479Q407.07812 65.197914 407.79688 65.197914Q408.53125 65.197914 409.01562 64.49479Q409.51562 63.791664 409.51562 61.68229Q409.51562 59.55729 409.01562 58.86979Q408.53125 58.166664 407.78125 58.166664Q407.0625 58.166664 406.625 58.77604Q406.07812 59.55729 406.07812 61.68229ZM412.59375 65.916664L412.59375 64.71354L413.79688 64.71354L413.79688 65.916664L412.59375 65.916664ZM416.625 61.260414Q415.96875 61.010414 415.64062 60.572914Q415.32812 60.11979 415.32812 59.510414Q415.32812 58.572914 416.0 57.93229Q416.6875 57.291664 417.79688 57.291664Q418.92188 57.291664 419.60938 57.947914Q420.29688 58.604164 420.29688 59.541664Q420.29688 60.135414 419.98438 60.572914Q419.67188 61.010414 419.03125 61.260414Q419.82812 61.510414 420.23438 62.08854Q420.64062 62.666664 420.64062 63.46354Q420.64062 64.55729 419.85938 65.30729Q419.09375 66.05729 417.8125 66.05729Q416.54688 66.05729 415.76562 65.30729Q414.98438 64.55729 414.98438 63.43229Q414.98438 62.58854 415.40625 62.02604Q415.84375 61.46354 416.625 61.260414ZM416.40625 59.46354Q416.40625 60.072914 416.79688 60.46354Q417.20312 60.854164 417.82812 60.854164Q418.4375 60.854164 418.82812 60.479164Q419.21875 60.08854 419.21875 59.52604Q419.21875 58.947914 418.8125 58.55729Q418.40625 58.15104 417.8125 58.15104Q417.20312 58.15104 416.79688 58.541664Q416.40625 58.93229 416.40625 59.46354ZM416.07812 63.43229Q416.07812 63.885414 416.28125 64.30729Q416.5 64.729164 416.92188 64.96354Q417.34375 65.197914 417.82812 65.197914Q418.57812 65.197914 419.0625 64.71354Q419.5625 64.229164 419.5625 63.479164Q419.5625 62.71354 419.0625 62.21354Q418.5625 61.71354 417.79688 61.71354Q417.04688 61.71354 416.5625 62.21354Q416.07812 62.697914 416.07812 63.43229ZM423.625 61.260414Q422.96875 61.010414 422.64062 60.572914Q422.32812 60.11979 422.32812 59.510414Q422.32812 58.572914 423.0 57.93229Q423.6875 57.291664 424.79688 57.291664Q425.92188 57.291664 426.60938 57.947914Q427.29688 58.604164 427.29688 59.541664Q427.29688 60.135414 426.98438 60.572914Q426.67188 61.010414 426.03125 61.260414Q426.82812 61.510414 427.23438 62.08854Q427.64062 62.666664 427.64062 63.46354Q427.64062 64.55729 426.85938 65.30729Q426.09375 66.05729 424.8125 66.05729Q423.54688 66.05729 422.76562 65.30729Q421.98438 64.55729 421.98438 63.43229Q421.98438 62.58854 422.40625 62.02604Q422.84375 61.46354 423.625 61.260414ZM423.40625 59.46354Q423.40625 60.072914 423.79688 60.46354Q424.20312 60.854164 424.82812 60.854164Q425.4375 60.854164 425.82812 60.479164Q426.21875 60.08854 426.21875 59.52604Q426.21875 58.947914 425.8125 58.55729Q425.40625 58.15104 424.8125 58.15104Q424.20312 58.15104 423.79688 58.541664Q423.40625 58.93229 423.40625 59.46354ZM423.07812 63.43229Q423.07812 63.885414 423.28125 64.30729Q423.5 64.729164 423.92188 64.96354Q424.34375 65.197914 424.82812 65.197914Q425.57812 65.197914 426.0625 64.71354Q426.5625 64.229164 426.5625 63.479164Q426.5625 62.71354 426.0625 62.21354Q425.5625 61.71354 424.79688 61.71354Q424.04688 61.71354 423.5625 62.21354Q423.07812 62.697914 423.07812 63.43229ZM429.0 63.65104L430.0625 63.510414Q430.23438 64.40104 430.67188 64.80729Q431.10938 65.197914 431.73438 65.197914Q432.48438 65.197914 433.0 64.68229Q433.51562 64.166664 433.51562 63.40104Q433.51562 62.68229 433.03125 62.21354Q432.5625 61.729164 431.82812 61.729164Q431.53125 61.729164 431.07812 61.854164L431.20312 60.916664Q431.3125 60.93229 431.375 60.93229Q432.04688 60.93229 432.57812 60.58854Q433.125 60.229164 433.125 59.49479Q433.125 58.916664 432.73438 58.541664Q432.34375 58.15104 431.71875 58.15104Q431.10938 58.15104 430.6875 58.541664Q430.28125 58.93229 430.17188 59.697914L429.10938 59.510414Q429.29688 58.46354 429.98438 57.885414Q430.67188 57.291664 431.6875 57.291664Q432.39062 57.291664 432.98438 57.604164Q433.57812 57.90104 433.89062 58.416664Q434.20312 58.93229 434.20312 59.52604Q434.20312 60.072914 433.90625 60.541664Q433.60938 60.99479 433.03125 61.260414Q433.78125 61.43229 434.20312 61.99479Q434.625 62.541664 434.625 63.385414Q434.625 64.510414 433.79688 65.291664Q432.98438 66.072914 431.73438 66.072914Q430.60938 66.072914 429.85938 65.40104Q429.10938 64.71354 429.0 63.65104Z" fill-rule="nonzero"/><path fill="#757575" d="M20.01875 37.55L20.01875 23.2375L21.909374 23.2375L21.909374 30.33125L29.01875 23.2375L31.58125 23.2375L25.58125 29.034374L31.846874 37.55L29.346874 37.55L24.253124 30.3L21.909374 32.58125L21.909374 37.55L20.01875 37.55ZM32.8625 37.55L32.8625 27.175L34.45625 27.175L34.45625 28.659374Q35.596874 26.940624 37.753124 26.940624Q38.690624 26.940624 39.471874 27.284374Q40.26875 27.6125 40.659374 28.159374Q41.05 28.70625 41.20625 29.45625Q41.3 29.95625 41.3 31.175L41.3 37.55L39.534374 37.55L39.534374 31.2375Q39.534374 30.159374 39.33125 29.628124Q39.128124 29.096874 38.596874 28.784374Q38.08125 28.471874 37.378124 28.471874Q36.253124 28.471874 35.440624 29.190624Q34.628124 29.89375 34.628124 31.878124L34.628124 37.55L32.8625 37.55ZM49.971874 34.20625L51.784374 34.440624Q51.3625 36.01875 50.190624 36.909374Q49.034374 37.784374 47.221874 37.784374Q44.95625 37.784374 43.6125 36.39375Q42.284374 34.9875 42.284374 32.45625Q42.284374 29.83125 43.628124 28.39375Q44.971874 26.940624 47.128124 26.940624Q49.20625 26.940624 50.51875 28.3625Q51.846874 29.76875 51.846874 32.346874Q51.846874 32.503124 51.83125 32.815624L44.096874 32.815624Q44.190624 34.51875 45.065624 35.425Q45.940624 36.33125 47.2375 36.33125Q48.20625 36.33125 48.878124 35.83125Q49.565624 35.315624 49.971874 34.20625ZM44.190624 31.3625L49.9875 31.3625Q49.878124 30.065624 49.33125 29.409374Q48.4875 28.39375 47.14375 28.39375Q45.940624 28.39375 45.1125 29.20625Q44.284374 30.003124 44.190624 31.3625ZM60.971874 34.20625L62.784374 34.440624Q62.3625 36.01875 61.190624 36.909374Q60.034374 37.784374 58.221874 37.784374Q55.95625 37.784374 54.6125 36.39375Q53.284374 34.9875 53.284374 32.45625Q53.284374 29.83125 54.628124 28.39375Q55.971874 26.940624 58.128124 26.940624Q60.20625 26.940624 61.51875 28.3625Q62.846874 29.76875 62.846874 32.346874Q62.846874 32.503124 62.83125 32.815624L55.096874 32.815624Q55.190624 34.51875 56.065624 35.425Q56.940624 36.33125 58.2375 36.33125Q59.20625 36.33125 59.878124 35.83125Q60.565624 35.315624 60.971874 34.20625ZM55.190624 31.3625L60.9875 31.3625Q60.878124 30.065624 60.33125 29.409374Q59.4875 28.39375 58.14375 28.39375Q56.940624 28.39375 56.1125 29.20625Q55.284374 30.003124 55.190624 31.3625ZM75.19063 37.55L69.64375 23.2375L71.69063 23.2375L75.40938 33.628124Q75.8625 34.878124 76.15938 35.971874Q76.4875 34.8 76.94063 33.628124L80.8 23.2375L82.7375 23.2375L77.12813 37.55L75.19063 37.55ZM83.22188 32.3625Q83.22188 29.4875 84.81563 28.096874Q86.15938 26.940624 88.08125 26.940624Q90.22188 26.940624 91.56563 28.346874Q92.925 29.753124 92.925 32.221874Q92.925 34.221874 92.33125 35.378124Q91.7375 36.51875 90.58125 37.159374Q89.44063 37.784374 88.08125 37.784374Q85.89375 37.784374 84.55 36.39375Q83.22188 34.9875 83.22188 32.3625ZM85.01875 32.3625Q85.01875 34.3625 85.87813 35.346874Q86.75313 36.33125 88.08125 36.33125Q89.39375 36.33125 90.25313 35.346874Q91.12813 34.346874 91.12813 32.3Q91.12813 30.378124 90.25313 29.39375Q89.37813 28.39375 88.08125 28.39375Q86.75313 28.39375 85.87813 29.39375Q85.01875 30.378124 85.01875 32.3625ZM94.83125 37.55L94.83125 23.2375L96.58125 23.2375L96.58125 37.55L94.83125 37.55ZM102.70625 35.971874L102.95625 37.534374Q102.22188 37.690624 101.62813 37.690624Q100.675 37.690624 100.14375 37.39375Q99.62813 37.08125 99.40938 36.596874Q99.19063 36.096874 99.19063 34.51875L99.19063 28.55L97.90938 28.55L97.90938 27.175L99.19063 27.175L99.19063 24.6125L100.94063 23.55L100.94063 27.175L102.70625 27.175L102.70625 28.55L100.94063 28.55L100.94063 34.6125Q100.94063 35.3625 101.03438 35.58125Q101.12813 35.784374 101.33125 35.925Q101.55 36.05 101.94063 36.05Q102.22188 36.05 102.70625 35.971874ZM111.64375 36.26875Q110.65938 37.096874 109.75313 37.440624Q108.84688 37.784374 107.81563 37.784374Q106.1125 37.784374 105.19063 36.95625Q104.26875 36.1125 104.26875 34.815624Q104.26875 34.05 104.6125 33.425Q104.97188 32.8 105.53438 32.425Q106.09688 32.034374 106.8 31.83125Q107.31563 31.70625 108.3625 31.565624Q110.4875 31.315624 111.4875 30.971874Q111.50313 30.6125 111.50313 30.503124Q111.50313 29.440624 111.00313 28.9875Q110.33125 28.39375 109.00313 28.39375Q107.75313 28.39375 107.15938 28.83125Q106.58125 29.26875 106.3 30.378124L104.58125 30.14375Q104.81563 29.034374 105.34688 28.3625Q105.87813 27.675 106.89375 27.315624Q107.90938 26.940624 109.25313 26.940624Q110.58125 26.940624 111.40938 27.253124Q112.2375 27.565624 112.62813 28.05Q113.01875 28.51875 113.175 29.2375Q113.26875 29.690624 113.26875 30.8625L113.26875 33.20625Q113.26875 35.659374 113.37813 36.315624Q113.4875 36.95625 113.83125 37.55L111.9875 37.55Q111.72188 37.003124 111.64375 36.26875ZM111.4875 32.346874Q110.53438 32.7375 108.6125 33.003124Q107.53438 33.159374 107.08125 33.3625Q106.64375 33.55 106.39375 33.925Q106.14375 34.3 106.14375 34.76875Q106.14375 35.471874 106.675 35.940624Q107.20625 36.409374 108.2375 36.409374Q109.25313 36.409374 110.03438 35.971874Q110.83125 35.51875 111.20625 34.753124Q111.4875 34.14375 111.4875 32.9875L111.4875 32.346874ZM115.55 38.409374L117.25313 38.659374Q117.3625 39.45625 117.84688 39.815624Q118.50313 40.3 119.64375 40.3Q120.8625 40.3 121.51875 39.815624Q122.19063 39.33125 122.425 38.45625Q122.56563 37.909374 122.55 36.190624Q121.39375 37.55 119.675 37.55Q117.53438 37.55 116.3625 36.003124Q115.19063 34.45625 115.19063 32.3Q115.19063 30.815624 115.72188 29.565624Q116.26875 28.315624 117.28438 27.628124Q118.31563 26.940624 119.69063 26.940624Q121.51875 26.940624 122.72188 28.425L122.72188 27.175L124.33125 27.175L124.33125 36.14375Q124.33125 38.565624 123.83125 39.565624Q123.34688 40.58125 122.26875 41.159374Q121.20625 41.753124 119.64375 41.753124Q117.8 41.753124 116.64375 40.925Q115.50313 40.096874 115.55 38.409374ZM117.00313 32.175Q117.00313 34.221874 117.81563 35.159374Q118.62813 36.096874 119.84688 36.096874Q121.05 36.096874 121.8625 35.159374Q122.69063 34.221874 122.69063 32.2375Q122.69063 30.33125 121.84688 29.3625Q121.00313 28.39375 119.81563 28.39375Q118.64375 28.39375 117.81563 29.346874Q117.00313 30.3 117.00313 32.175ZM133.97188 34.20625L135.78438 34.440624Q135.3625 36.01875 134.19063 36.909374Q133.03438 37.784374 131.22188 37.784374Q128.95625 37.784374 127.6125 36.39375Q126.28438 34.9875 126.28438 32.45625Q126.28438 29.83125 127.62813 28.39375Q128.97188 26.940624 131.12813 26.940624Q133.20625 26.940624 134.51875 28.3625Q135.84688 29.76875 135.84688 32.346874Q135.84688 32.503124 135.83125 32.815624L128.09688 32.815624Q128.19063 34.51875 129.06563 35.425Q129.94063 36.33125 131.2375 36.33125Q132.20625 36.33125 132.87813 35.83125Q133.56563 35.315624 133.97188 34.20625ZM128.19063 31.3625L133.9875 31.3625Q133.87813 30.065624 133.33125 29.409374Q132.4875 28.39375 131.14375 28.39375Q129.94063 28.39375 129.1125 29.20625Q128.28438 30.003124 128.19063 31.3625ZM146.75313 37.55L142.8 27.175L144.65938 27.175L146.89375 33.39375Q147.25313 34.39375 147.55 35.471874Q147.78438 34.659374 148.20625 33.503124L150.50313 27.175L152.31563 27.175L148.39375 37.55L146.75313 37.55ZM152.15938 34.45625L153.90938 34.175Q154.05 35.221874 154.72188 35.784374Q155.39375 36.33125 156.59688 36.33125Q157.8 36.33125 158.37813 35.846874Q158.97188 35.346874 158.97188 34.690624Q158.97188 34.096874 158.45625 33.753124Q158.09688 33.51875 156.65938 33.159374Q154.72188 32.659374 153.97188 32.315624Q153.2375 31.95625 152.84688 31.33125Q152.45625 30.690624 152.45625 29.925Q152.45625 29.2375 152.76875 28.64375Q153.09688 28.05 153.64375 27.659374Q154.05 27.3625 154.75313 27.159374Q155.47188 26.940624 156.28438 26.940624Q157.50313 26.940624 158.425 27.3Q159.34688 27.64375 159.78438 28.253124Q160.22188 28.846874 160.39375 29.846874L158.675 30.08125Q158.55 29.284374 157.9875 28.846874Q157.425 28.39375 156.40938 28.39375Q155.19063 28.39375 154.675 28.8Q154.15938 29.190624 154.15938 29.721874Q154.15938 30.065624 154.37813 30.346874Q154.58125 30.628124 155.05 30.815624Q155.31563 30.909374 156.59688 31.253124Q158.47188 31.753124 159.20625 32.08125Q159.94063 32.39375 160.3625 33.003124Q160.78438 33.596874 160.78438 34.503124Q160.78438 35.378124 160.26875 36.159374Q159.75313 36.940624 158.78438 37.3625Q157.81563 37.784374 156.59688 37.784374Q154.58125 37.784374 153.51875 36.940624Q152.45625 36.096874 152.15938 34.45625ZM163.3625 37.55L163.3625 35.55L165.3625 35.55L165.3625 37.55L163.3625 37.55ZM181.00313 37.55L179.2375 37.55L179.2375 26.346874Q178.6125 26.95625 177.58125 27.565624Q176.55 28.159374 175.72188 28.471874L175.72188 26.76875Q177.20625 26.08125 178.3 25.096874Q179.40938 24.096874 179.8625 23.175L181.00313 23.175L181.00313 37.55ZM184.55 37.8L188.70625 22.9875L190.1125 22.9875L185.97188 37.8L184.55 37.8ZM194.59688 37.55L190.8 23.2375L192.7375 23.2375L194.90938 32.6125Q195.26875 34.096874 195.51875 35.55Q196.06563 33.253124 196.15938 32.89375L198.89375 23.2375L201.175 23.2375L203.22188 30.471874Q204.00313 33.175 204.34688 35.55Q204.6125 34.190624 205.05 32.425L207.3 23.2375L209.20625 23.2375L205.28438 37.55L203.45625 37.55L200.44063 26.64375Q200.05 25.26875 199.9875 24.95625Q199.75313 25.940624 199.56563 26.64375L196.53438 37.55L194.59688 37.55ZM217.64375 36.26875Q216.65938 37.096874 215.75313 37.440624Q214.84688 37.784374 213.81563 37.784374Q212.1125 37.784374 211.19063 36.95625Q210.26875 36.1125 210.26875 34.815624Q210.26875 34.05 210.6125 33.425Q210.97188 32.8 211.53438 32.425Q212.09688 32.034374 212.8 31.83125Q213.31563 31.70625 214.3625 31.565624Q216.4875 31.315624 217.4875 30.971874Q217.50313 30.6125 217.50313 30.503124Q217.50313 29.440624 217.00313 28.9875Q216.33125 28.39375 215.00313 28.39375Q213.75313 28.39375 213.15938 28.83125Q212.58125 29.26875 212.3 30.378124L210.58125 30.14375Q210.81563 29.034374 211.34688 28.3625Q211.87813 27.675 212.89375 27.315624Q213.90938 26.940624 215.25313 26.940624Q216.58125 26.940624 217.40938 27.253124Q218.2375 27.565624 218.62813 28.05Q219.01875 28.51875 219.175 29.2375Q219.26875 29.690624 219.26875 30.8625L219.26875 33.20625Q219.26875 35.659374 219.37813 36.315624Q219.4875 36.95625 219.83125 37.55L217.9875 37.55Q217.72188 37.003124 217.64375 36.26875ZM217.4875 32.346874Q216.53438 32.7375 214.6125 33.003124Q213.53438 33.159374 213.08125 33.3625Q212.64375 33.55 212.39375 33.925Q212.14375 34.3 212.14375 34.76875Q212.14375 35.471874 212.675 35.940624Q213.20625 36.409374 214.2375 36.409374Q215.25313 36.409374 216.03438 35.971874Q216.83125 35.51875 217.20625 34.753124Q217.4875 34.14375 217.4875 32.9875L217.4875 32.346874ZM224.75313 37.55L220.8 27.175L222.65938 27.175L224.89375 33.39375Q225.25313 34.39375 225.55 35.471874Q225.78438 34.659374 226.20625 33.503124L228.50313 27.175L230.31563 27.175L226.39375 37.55L224.75313 37.55ZM237.97188 34.20625L239.78438 34.440624Q239.3625 36.01875 238.19063 36.909374Q237.03438 37.784374 235.22188 37.784374Q232.95625 37.784374 231.6125 36.39375Q230.28438 34.9875 230.28438 32.45625Q230.28438 29.83125 231.62813 28.39375Q232.97188 26.940624 235.12813 26.940624Q237.20625 26.940624 238.51875 28.3625Q239.84688 29.76875 239.84688 32.346874Q239.84688 32.503124 239.83125 32.815624L232.09688 32.815624Q232.19063 34.51875 233.06563 35.425Q233.94063 36.33125 235.2375 36.33125Q236.20625 36.33125 236.87813 35.83125Q237.56563 35.315624 237.97188 34.20625ZM232.19063 31.3625L237.9875 31.3625Q237.87813 30.065624 237.33125 29.409374Q236.4875 28.39375 235.14375 28.39375Q233.94063 28.39375 233.1125 29.20625Q232.28438 30.003124 232.19063 31.3625ZM241.83125 37.55L241.83125 23.2375L243.58125 23.2375L243.58125 37.55L241.83125 37.55ZM252.97188 34.20625L254.78438 34.440624Q254.3625 36.01875 253.19063 36.909374Q252.03438 37.784374 250.22188 37.784374Q247.95625 37.784374 246.6125 36.39375Q245.28438 34.9875 245.28438 32.45625Q245.28438 29.83125 246.62813 28.39375Q247.97188 26.940624 250.12813 26.940624Q252.20625 26.940624 253.51875 28.3625Q254.84688 29.76875 254.84688 32.346874Q254.84688 32.503124 254.83125 32.815624L247.09688 32.815624Q247.19063 34.51875 248.06563 35.425Q248.94063 36.33125 250.2375 36.33125Q251.20625 36.33125 251.87813 35.83125Q252.56563 35.315624 252.97188 34.20625ZM247.19063 31.3625L252.9875 31.3625Q252.87813 30.065624 252.33125 29.409374Q251.4875 28.39375 250.14375 28.39375Q248.94063 28.39375 248.1125 29.20625Q247.28438 30.003124 247.19063 31.3625ZM256.8625 37.55L256.8625 27.175L258.45624 27.175L258.45624 28.659374Q259.59686 26.940624 261.7531 26.940624Q262.6906 26.940624 263.47186 27.284374Q264.26874 27.6125 264.65936 28.159374Q265.05 28.70625 265.20624 29.45625Q265.3 29.95625 265.3 31.175L265.3 37.55L263.53436 37.55L263.53436 31.2375Q263.53436 30.159374 263.33124 29.628124Q263.1281 29.096874 262.59686 28.784374Q262.08124 28.471874 261.3781 28.471874Q260.2531 28.471874 259.4406 29.190624Q258.6281 29.89375 258.6281 31.878124L258.6281 37.55L256.8625 37.55ZM266.55 38.409374L268.2531 38.659374Q268.3625 39.45625 268.84686 39.815624Q269.5031 40.3 270.64374 40.3Q271.8625 40.3 272.51874 39.815624Q273.1906 39.33125 273.425 38.45625Q273.5656 37.909374 273.55 36.190624Q272.39374 37.55 270.675 37.55Q268.53436 37.55 267.3625 36.003124Q266.1906 34.45625 266.1906 32.3Q266.1906 30.815624 266.72186 29.565624Q267.26874 28.315624 268.28436 27.628124Q269.3156 26.940624 270.6906 26.940624Q272.51874 26.940624 273.72186 28.425L273.72186 27.175L275.33124 27.175L275.33124 36.14375Q275.33124 38.565624 274.83124 39.565624Q274.34686 40.58125 273.26874 41.159374Q272.20624 41.753124 270.64374 41.753124Q268.8 41.753124 267.64374 40.925Q266.5031 40.096874 266.55 38.409374ZM268.0031 32.175Q268.0031 34.221874 268.8156 35.159374Q269.6281 36.096874 270.84686 36.096874Q272.05 36.096874 272.8625 35.159374Q273.6906 34.221874 273.6906 32.2375Q273.6906 30.33125 272.84686 29.3625Q272.0031 28.39375 270.8156 28.39375Q269.64374 28.39375 268.8156 29.346874Q268.0031 30.3 268.0031 32.175ZM281.70624 35.971874L281.95624 37.534374Q281.22186 37.690624 280.6281 37.690624Q279.675 37.690624 279.14374 37.39375Q278.6281 37.08125 278.40936 36.596874Q278.1906 36.096874 278.1906 34.51875L278.1906 28.55L276.90936 28.55L276.90936 27.175L278.1906 27.175L278.1906 24.6125L279.9406 23.55L279.9406 27.175L281.70624 27.175L281.70624 28.55L279.9406 28.55L279.9406 34.6125Q279.9406 35.3625 280.03436 35.58125Q280.1281 35.784374 280.33124 35.925Q280.55 36.05 280.9406 36.05Q281.22186 36.05 281.70624 35.971874ZM283.8625 37.55L283.8625 23.2375L285.6281 23.2375L285.6281 28.3625Q286.8625 26.940624 288.7375 26.940624Q289.8781 26.940624 290.72186 27.39375Q291.58124 27.846874 291.9406 28.659374Q292.3156 29.45625 292.3156 30.971874L292.3156 37.55L290.5656 37.55L290.5656 30.971874Q290.5656 29.659374 289.9875 29.065624Q289.40936 28.45625 288.3781 28.45625Q287.59686 28.45625 286.89374 28.8625Q286.20624 29.26875 285.90936 29.971874Q285.6281 30.659374 285.6281 31.878124L285.6281 37.55L283.8625 37.55Z" fill-rule="nonzero"/></svg>